<svg xmlns="http://www.w3.org/2000/svg" version="1.1" xmlns:xlink="http://www.w3.org/1999/xlink" width="1872.1459154572476" height="1872.1459154572476"><svg version="1.1" xmlns="http://www.w3.org/2000/svg" viewBox="0 0 936.0729577286238 936.0729577286238" width="1872.1459154572476" height="1872.1459154572476"><!-- svg-source:excalidraw --><metadata></metadata><defs><style class="style-fonts">
      </style></defs><rect x="0" y="0" width="936.0729577286238" height="936.0729577286238" fill="#ffffff"></rect><g stroke-opacity="0.2" fill-opacity="0.2" stroke-linecap="round" transform="translate(9.999999999999943 10) rotate(0 458.03647886431196 458.0364788643119)"><path d="M916.07 458.04 C916.07 464.89, 915.92 471.74, 915.61 478.59 C915.3 485.43, 914.84 492.27, 914.23 499.09 C913.62 505.92, 912.85 512.73, 911.93 519.52 C911.01 526.31, 909.94 533.08, 908.71 539.82 C907.49 546.56, 906.11 553.28, 904.59 559.96 C903.06 566.64, 901.39 573.29, 899.57 579.89 C897.74 586.49, 895.77 593.06, 893.66 599.58 C891.54 606.09, 889.27 612.57, 886.87 618.98 C884.46 625.39, 881.91 631.76, 879.21 638.06 C876.52 644.35, 873.69 650.6, 870.71 656.77 C867.74 662.94, 864.63 669.05, 861.38 675.09 C858.14 681.12, 854.75 687.08, 851.24 692.96 C847.72 698.84, 844.08 704.65, 840.3 710.37 C836.53 716.08, 832.62 721.72, 828.6 727.26 C824.57 732.81, 820.41 738.26, 816.14 743.62 C811.87 748.97, 807.48 754.24, 802.97 759.4 C798.46 764.55, 793.84 769.62, 789.1 774.57 C784.37 779.52, 779.52 784.37, 774.57 789.1 C769.62 793.84, 764.55 798.46, 759.4 802.97 C754.24 807.48, 748.97 811.87, 743.62 816.14 C738.26 820.41, 732.81 824.57, 727.26 828.6 C721.72 832.62, 716.08 836.53, 710.37 840.3 C704.65 844.08, 698.84 847.72, 692.96 851.24 C687.08 854.75, 681.12 858.14, 675.09 861.38 C669.05 864.63, 662.94 867.74, 656.77 870.71 C650.6 873.69, 644.35 876.52, 638.06 879.21 C631.76 881.91, 625.39 884.46, 618.98 886.87 C612.57 889.27, 606.09 891.54, 599.58 893.66 C593.06 895.77, 586.49 897.74, 579.89 899.57 C573.29 901.39, 566.64 903.06, 559.96 904.59 C553.28 906.11, 546.56 907.49, 539.82 908.71 C533.08 909.94, 526.31 911.01, 519.52 911.93 C512.73 912.85, 505.92 913.62, 499.09 914.23 C492.27 914.84, 485.43 915.3, 478.59 915.61 C471.74 915.92, 464.89 916.07, 458.04 916.07 C451.19 916.07, 444.33 915.92, 437.49 915.61 C430.64 915.3, 423.8 914.84, 416.98 914.23 C410.16 913.62, 403.34 912.85, 396.55 911.93 C389.76 911.01, 382.99 909.94, 376.25 908.71 C369.51 907.49, 362.79 906.11, 356.11 904.59 C349.44 903.06, 342.78 901.39, 336.18 899.57 C329.58 897.74, 323.01 895.77, 316.5 893.66 C309.98 891.54, 303.51 889.27, 297.09 886.87 C290.68 884.46, 284.32 881.91, 278.02 879.21 C271.72 876.52, 265.47 873.69, 259.3 870.71 C253.13 867.74, 247.02 864.63, 240.99 861.38 C234.96 858.14, 228.99 854.75, 223.11 851.24 C217.23 847.72, 211.42 844.08, 205.71 840.3 C199.99 836.53, 194.35 832.62, 188.81 828.6 C183.27 824.57, 177.81 820.41, 172.46 816.14 C167.1 811.87, 161.84 807.48, 156.68 802.97 C151.52 798.46, 146.46 793.84, 141.5 789.1 C136.55 784.37, 131.7 779.52, 126.97 774.57 C122.24 769.62, 117.61 764.55, 113.1 759.4 C108.6 754.24, 104.2 748.97, 99.93 743.62 C95.66 738.26, 91.5 732.81, 87.48 727.26 C83.45 721.72, 79.55 716.08, 75.77 710.37 C72 704.65, 68.35 698.84, 64.84 692.96 C61.32 687.08, 57.94 681.12, 54.69 675.09 C51.45 669.05, 48.33 662.94, 45.36 656.77 C42.39 650.6, 39.55 644.35, 36.86 638.06 C34.17 631.76, 31.61 625.39, 29.21 618.98 C26.8 612.57, 24.53 606.09, 22.42 599.58 C20.3 593.06, 18.33 586.49, 16.51 579.89 C14.68 573.29, 13.01 566.64, 11.48 559.96 C9.96 553.28, 8.58 546.56, 7.36 539.82 C6.14 533.08, 5.06 526.31, 4.15 519.52 C3.23 512.73, 2.46 505.92, 1.84 499.09 C1.23 492.27, 0.77 485.43, 0.46 478.59 C0.15 471.74, 0 464.89, 0 458.04 C0 451.19, 0.15 444.33, 0.46 437.49 C0.77 430.64, 1.23 423.8, 1.84 416.98 C2.46 410.16, 3.23 403.34, 4.15 396.55 C5.06 389.76, 6.14 382.99, 7.36 376.25 C8.58 369.51, 9.96 362.79, 11.48 356.11 C13.01 349.44, 14.68 342.78, 16.51 336.18 C18.33 329.58, 20.3 323.01, 22.42 316.5 C24.53 309.98, 26.8 303.51, 29.21 297.09 C31.61 290.68, 34.17 284.32, 36.86 278.02 C39.55 271.72, 42.39 265.47, 45.36 259.3 C48.33 253.13, 51.45 247.02, 54.69 240.99 C57.94 234.96, 61.32 228.99, 64.84 223.11 C68.35 217.23, 72 211.42, 75.77 205.71 C79.55 199.99, 83.45 194.35, 87.48 188.81 C91.5 183.27, 95.66 177.81, 99.93 172.46 C104.2 167.1, 108.6 161.84, 113.1 156.68 C117.61 151.52, 122.24 146.46, 126.97 141.5 C131.7 136.55, 136.55 131.7, 141.5 126.97 C146.46 122.24, 151.52 117.61, 156.68 113.1 C161.84 108.6, 167.1 104.2, 172.46 99.93 C177.81 95.66, 183.27 91.5, 188.81 87.48 C194.35 83.45, 199.99 79.55, 205.71 75.77 C211.42 72, 217.23 68.35, 223.11 64.84 C228.99 61.32, 234.96 57.94, 240.99 54.69 C247.02 51.45, 253.13 48.33, 259.3 45.36 C265.47 42.39, 271.72 39.55, 278.02 36.86 C284.32 34.17, 290.68 31.61, 297.09 29.21 C303.51 26.8, 309.98 24.53, 316.5 22.42 C323.01 20.3, 329.58 18.33, 336.18 16.51 C342.78 14.68, 349.44 13.01, 356.11 11.48 C362.79 9.96, 369.51 8.58, 376.25 7.36 C382.99 6.14, 389.76 5.06, 396.55 4.15 C403.34 3.23, 410.16 2.46, 416.98 1.84 C423.8 1.23, 430.64 0.77, 437.49 0.46 C444.33 0.15, 451.19 0, 458.04 0 C464.89 0, 471.74 0.15, 478.59 0.46 C485.43 0.77, 492.27 1.23, 499.09 1.84 C505.92 2.46, 512.73 3.23, 519.52 4.15 C526.31 5.06, 533.08 6.14, 539.82 7.36 C546.56 8.58, 553.28 9.96, 559.96 11.48 C566.64 13.01, 573.29 14.68, 579.89 16.51 C586.49 18.33, 593.06 20.3, 599.58 22.42 C606.09 24.53, 612.57 26.8, 618.98 29.21 C625.39 31.61, 631.76 34.17, 638.06 36.86 C644.35 39.55, 650.6 42.39, 656.77 45.36 C662.94 48.33, 669.05 51.45, 675.09 54.69 C681.12 57.94, 687.08 61.32, 692.96 64.84 C698.84 68.35, 704.65 72, 710.37 75.77 C716.08 79.55, 721.72 83.45, 727.26 87.48 C732.81 91.5, 738.26 95.66, 743.62 99.93 C748.97 104.2, 754.24 108.6, 759.4 113.1 C764.55 117.61, 769.62 122.24, 774.57 126.97 C779.52 131.7, 784.37 136.55, 789.1 141.5 C793.84 146.46, 798.46 151.52, 802.97 156.68 C807.48 161.84, 811.87 167.1, 816.14 172.46 C820.41 177.81, 824.57 183.27, 828.6 188.81 C832.62 194.35, 836.53 199.99, 840.3 205.71 C844.08 211.42, 847.72 217.23, 851.24 223.11 C854.75 228.99, 858.14 234.96, 861.38 240.99 C864.63 247.02, 867.74 253.13, 870.71 259.3 C873.69 265.47, 876.52 271.72, 879.21 278.02 C881.91 284.32, 884.46 290.68, 886.87 297.09 C889.27 303.51, 891.54 309.98, 893.66 316.5 C895.77 323.01, 897.74 329.58, 899.57 336.18 C901.39 342.78, 903.06 349.44, 904.59 356.11 C906.11 362.79, 907.49 369.51, 908.71 376.25 C909.94 382.99, 911.01 389.76, 911.93 396.55 C912.85 403.34, 913.62 410.16, 914.23 416.98 C914.84 423.8, 915.3 430.64, 915.61 437.49 C915.92 444.33, 916 454.61, 916.07 458.04 C916.15 461.46, 916.15 454.61, 916.07 458.04" stroke="none" stroke-width="0" fill="#d0c3b3"></path><path d="M916.07 458.04 C916.07 464.89, 915.92 471.74, 915.61 478.59 C915.3 485.43, 914.84 492.27, 914.23 499.09 C913.62 505.92, 912.85 512.73, 911.93 519.52 C911.01 526.31, 909.94 533.08, 908.71 539.82 C907.49 546.56, 906.11 553.28, 904.59 559.96 C903.06 566.64, 901.39 573.29, 899.57 579.89 C897.74 586.49, 895.77 593.06, 893.66 599.58 C891.54 606.09, 889.27 612.57, 886.87 618.98 C884.46 625.39, 881.91 631.76, 879.21 638.06 C876.52 644.35, 873.69 650.6, 870.71 656.77 C867.74 662.94, 864.63 669.05, 861.38 675.09 C858.14 681.12, 854.75 687.08, 851.24 692.96 C847.72 698.84, 844.08 704.65, 840.3 710.37 C836.53 716.08, 832.62 721.72, 828.6 727.26 C824.57 732.81, 820.41 738.26, 816.14 743.62 C811.87 748.97, 807.48 754.24, 802.97 759.4 C798.46 764.55, 793.84 769.62, 789.1 774.57 C784.37 779.52, 779.52 784.37, 774.57 789.1 C769.62 793.84, 764.55 798.46, 759.4 802.97 C754.24 807.48, 748.97 811.87, 743.62 816.14 C738.26 820.41, 732.81 824.57, 727.26 828.6 C721.72 832.62, 716.08 836.53, 710.37 840.3 C704.65 844.08, 698.84 847.72, 692.96 851.24 C687.08 854.75, 681.12 858.14, 675.09 861.38 C669.05 864.63, 662.94 867.74, 656.77 870.71 C650.6 873.69, 644.35 876.52, 638.06 879.21 C631.76 881.91, 625.39 884.46, 618.98 886.87 C612.57 889.27, 606.09 891.54, 599.58 893.66 C593.06 895.77, 586.49 897.74, 579.89 899.57 C573.29 901.39, 566.64 903.06, 559.96 904.59 C553.28 906.11, 546.56 907.49, 539.82 908.71 C533.08 909.94, 526.31 911.01, 519.52 911.93 C512.73 912.85, 505.92 913.62, 499.09 914.23 C492.27 914.84, 485.43 915.3, 478.59 915.61 C471.74 915.92, 464.89 916.07, 458.04 916.07 C451.19 916.07, 444.33 915.92, 437.49 915.61 C430.64 915.3, 423.8 914.84, 416.98 914.23 C410.16 913.62, 403.34 912.85, 396.55 911.93 C389.76 911.01, 382.99 909.94, 376.25 908.71 C369.51 907.49, 362.79 906.11, 356.11 904.59 C349.44 903.06, 342.78 901.39, 336.18 899.57 C329.58 897.74, 323.01 895.77, 316.5 893.66 C309.98 891.54, 303.51 889.27, 297.09 886.87 C290.68 884.46, 284.32 881.91, 278.02 879.21 C271.72 876.52, 265.47 873.69, 259.3 870.71 C253.13 867.74, 247.02 864.63, 240.99 861.38 C234.96 858.14, 228.99 854.75, 223.11 851.24 C217.23 847.72, 211.42 844.08, 205.71 840.3 C199.99 836.53, 194.35 832.62, 188.81 828.6 C183.27 824.57, 177.81 820.41, 172.46 816.14 C167.1 811.87, 161.84 807.48, 156.68 802.97 C151.52 798.46, 146.46 793.84, 141.5 789.1 C136.55 784.37, 131.7 779.52, 126.97 774.57 C122.24 769.62, 117.61 764.55, 113.1 759.4 C108.6 754.24, 104.2 748.97, 99.93 743.62 C95.66 738.26, 91.5 732.81, 87.48 727.26 C83.45 721.72, 79.55 716.08, 75.77 710.37 C72 704.65, 68.35 698.84, 64.84 692.96 C61.32 687.08, 57.94 681.12, 54.69 675.09 C51.45 669.05, 48.33 662.94, 45.36 656.77 C42.39 650.6, 39.55 644.35, 36.86 638.06 C34.17 631.76, 31.61 625.39, 29.21 618.98 C26.8 612.57, 24.53 606.09, 22.42 599.58 C20.3 593.06, 18.33 586.49, 16.51 579.89 C14.68 573.29, 13.01 566.64, 11.48 559.96 C9.96 553.28, 8.58 546.56, 7.36 539.82 C6.14 533.08, 5.06 526.31, 4.15 519.52 C3.23 512.73, 2.46 505.92, 1.84 499.09 C1.23 492.27, 0.77 485.43, 0.46 478.59 C0.15 471.74, 0 464.89, 0 458.04 C0 451.19, 0.15 444.33, 0.46 437.49 C0.77 430.64, 1.23 423.8, 1.84 416.98 C2.46 410.16, 3.23 403.34, 4.15 396.55 C5.06 389.76, 6.14 382.99, 7.36 376.25 C8.58 369.51, 9.96 362.79, 11.48 356.11 C13.01 349.44, 14.68 342.78, 16.51 336.18 C18.33 329.58, 20.3 323.01, 22.42 316.5 C24.53 309.98, 26.8 303.51, 29.21 297.09 C31.61 290.68, 34.17 284.32, 36.86 278.02 C39.55 271.72, 42.39 265.47, 45.36 259.3 C48.33 253.13, 51.45 247.02, 54.69 240.99 C57.94 234.96, 61.32 228.99, 64.84 223.11 C68.35 217.23, 72 211.42, 75.77 205.71 C79.55 199.99, 83.45 194.35, 87.48 188.81 C91.5 183.27, 95.66 177.81, 99.93 172.46 C104.2 167.1, 108.6 161.84, 113.1 156.68 C117.61 151.52, 122.24 146.46, 126.97 141.5 C131.7 136.55, 136.55 131.7, 141.5 126.97 C146.46 122.24, 151.52 117.61, 156.68 113.1 C161.84 108.6, 167.1 104.2, 172.46 99.93 C177.81 95.66, 183.27 91.5, 188.81 87.48 C194.35 83.45, 199.99 79.55, 205.71 75.77 C211.42 72, 217.23 68.35, 223.11 64.84 C228.99 61.32, 234.96 57.94, 240.99 54.69 C247.02 51.45, 253.13 48.33, 259.3 45.36 C265.47 42.39, 271.72 39.55, 278.02 36.86 C284.32 34.17, 290.68 31.61, 297.09 29.21 C303.51 26.8, 309.98 24.53, 316.5 22.42 C323.01 20.3, 329.58 18.33, 336.18 16.51 C342.78 14.68, 349.44 13.01, 356.11 11.48 C362.79 9.96, 369.51 8.58, 376.25 7.36 C382.99 6.14, 389.76 5.06, 396.55 4.15 C403.34 3.23, 410.16 2.46, 416.98 1.84 C423.8 1.23, 430.64 0.77, 437.49 0.46 C444.33 0.15, 451.19 0, 458.04 0 C464.89 0, 471.74 0.15, 478.59 0.46 C485.43 0.77, 492.27 1.23, 499.09 1.84 C505.92 2.46, 512.73 3.23, 519.52 4.15 C526.31 5.06, 533.08 6.14, 539.82 7.36 C546.56 8.58, 553.28 9.96, 559.96 11.48 C566.64 13.01, 573.29 14.68, 579.89 16.51 C586.49 18.33, 593.06 20.3, 599.58 22.42 C606.09 24.53, 612.57 26.8, 618.98 29.21 C625.39 31.61, 631.76 34.17, 638.06 36.86 C644.35 39.55, 650.6 42.39, 656.77 45.36 C662.94 48.33, 669.05 51.45, 675.09 54.69 C681.12 57.94, 687.08 61.32, 692.96 64.84 C698.84 68.35, 704.65 72, 710.37 75.77 C716.08 79.55, 721.72 83.45, 727.26 87.48 C732.81 91.5, 738.26 95.66, 743.62 99.93 C748.97 104.2, 754.24 108.6, 759.4 113.1 C764.55 117.61, 769.62 122.24, 774.57 126.97 C779.52 131.7, 784.37 136.55, 789.1 141.5 C793.84 146.46, 798.46 151.52, 802.97 156.68 C807.48 161.84, 811.87 167.1, 816.14 172.46 C820.41 177.81, 824.57 183.27, 828.6 188.81 C832.62 194.35, 836.53 199.99, 840.3 205.71 C844.08 211.42, 847.72 217.23, 851.24 223.11 C854.75 228.99, 858.14 234.96, 861.38 240.99 C864.63 247.02, 867.74 253.13, 870.71 259.3 C873.69 265.47, 876.52 271.72, 879.21 278.02 C881.91 284.32, 884.46 290.68, 886.87 297.09 C889.27 303.51, 891.54 309.98, 893.66 316.5 C895.77 323.01, 897.74 329.58, 899.57 336.18 C901.39 342.78, 903.06 349.44, 904.59 356.11 C906.11 362.79, 907.49 369.51, 908.71 376.25 C909.94 382.99, 911.01 389.76, 911.93 396.55 C912.85 403.34, 913.62 410.16, 914.23 416.98 C914.84 423.8, 915.3 430.64, 915.61 437.49 C915.92 444.33, 916 454.61, 916.07 458.04 C916.15 461.46, 916.15 454.61, 916.07 458.04" stroke="#2b2015" stroke-width="2" fill="none"></path></g><g stroke-linecap="round"><g transform="translate(150.64945031052042 295.31227330128104) rotate(0 44.8247703148856 15.44919568460648)"><path d="M0 0 C1.28 -0.91, 4.66 -4.87, 7.7 -5.47 C10.75 -6.08, 14.63 -4.29, 18.25 -3.65 C21.86 -3.01, 19.7 -0.88, 29.4 -1.62 C39.1 -2.37, 66.57 -6.59, 76.44 -8.11 C86.31 -9.63, 92.15 -12.3, 88.6 -10.75 C85.06 -9.19, 63.97 -2.26, 55.15 1.22 C46.33 4.7, 40.21 4.66, 35.69 10.14 C31.16 15.61, 30.41 28.76, 27.98 34.06 C25.55 39.37, 23.45 42.88, 21.09 41.97 C18.72 41.06, 16.46 34.03, 13.79 28.59 C11.12 23.15, 7.37 14.09, 5.07 9.33 C2.77 4.56, 0.84 1.55, 0 0 M0 0 C1.28 -0.91, 4.66 -4.87, 7.7 -5.47 C10.75 -6.08, 14.63 -4.29, 18.25 -3.65 C21.86 -3.01, 19.7 -0.88, 29.4 -1.62 C39.1 -2.37, 66.57 -6.59, 76.44 -8.11 C86.31 -9.63, 92.15 -12.3, 88.6 -10.75 C85.06 -9.19, 63.97 -2.26, 55.15 1.22 C46.33 4.7, 40.21 4.66, 35.69 10.14 C31.16 15.61, 30.41 28.76, 27.98 34.06 C25.55 39.37, 23.45 42.88, 21.09 41.97 C18.72 41.06, 16.46 34.03, 13.79 28.59 C11.12 23.15, 7.37 14.09, 5.07 9.33 C2.77 4.56, 0.84 1.55, 0 0" stroke="#1e1e1e" stroke-width="4" fill="none"></path></g></g><mask></mask><g stroke-linecap="round"><g transform="translate(383.4584768831243 480.6361904444343) rotate(0 -67.66613181797084 100.0220829511635)" fill-rule="evenodd"><path d="M0 0 C-6.39 -6.93, -26.42 -28.46, -38.31 -41.57 C-50.2 -54.68, -55.84 -75.54, -71.32 -78.66 C-86.81 -81.79, -117.31 -64.87, -131.24 -60.32 C-145.16 -55.77, -144.75 -52.1, -154.88 -51.35 C-165 -50.61, -187.07 -58.83, -191.96 -55.84 C-196.85 -52.85, -185.59 -52.69, -184.22 -33.42 C-182.85 -14.15, -183.1 36.19, -183.77 59.8 C-184.44 83.42, -186.86 98.29, -188.23 108.28 C-189.6 118.27, -191.05 114.26, -191.97 119.74 C-192.88 125.22, -191.68 119.18, -193.71 141.17 C-195.75 163.15, -202.4 229.36, -204.18 251.63 C-205.95 273.9, -207.64 270.23, -204.34 274.79 C-201.05 279.34, -201.46 278.48, -184.41 278.98 C-167.35 279.48, -135.11 278.11, -102.03 277.79 C-68.95 277.46, -12.89 277.37, 14.08 277.04 C41.04 276.71, 50.49 277.77, 59.75 275.78 C69.01 273.79, 67.91 273.26, 69.64 265.08 C71.37 256.9, 71.07 237.44, 70.13 226.71 C69.2 215.98, 65.76 208.58, 64.01 200.69 C62.27 192.8, 64.88 198.58, 59.67 179.37 C54.46 160.17, 39.32 105.67, 32.76 85.45 C26.2 65.22, 22.8 67.34, 20.3 58.04 C17.81 48.74, 21.2 39.31, 17.81 29.64 C14.43 19.96, 2.97 4.94, 0 0" stroke="none" stroke-width="0" fill="#bfc9cb" fill-rule="evenodd"></path><path d="M0 0 C-6.39 -6.93, -26.42 -28.46, -38.31 -41.57 C-50.2 -54.68, -55.84 -75.54, -71.32 -78.66 C-86.81 -81.79, -117.31 -64.87, -131.24 -60.32 C-145.16 -55.77, -144.75 -52.1, -154.88 -51.35 C-165 -50.61, -187.07 -58.83, -191.96 -55.84 C-196.85 -52.85, -185.59 -52.69, -184.22 -33.42 C-182.85 -14.15, -183.1 36.19, -183.77 59.8 C-184.44 83.42, -186.86 98.29, -188.23 108.28 C-189.6 118.27, -191.05 114.26, -191.97 119.74 C-192.88 125.22, -191.68 119.18, -193.71 141.17 C-195.75 163.15, -202.4 229.36, -204.18 251.63 C-205.95 273.9, -207.64 270.23, -204.34 274.79 C-201.05 279.34, -201.46 278.48, -184.41 278.98 C-167.35 279.48, -135.11 278.11, -102.03 277.79 C-68.95 277.46, -12.89 277.37, 14.08 277.04 C41.04 276.71, 50.49 277.77, 59.75 275.78 C69.01 273.79, 67.91 273.26, 69.64 265.08 C71.37 256.9, 71.07 237.44, 70.13 226.71 C69.2 215.98, 65.76 208.58, 64.01 200.69 C62.27 192.8, 64.88 198.58, 59.67 179.37 C54.46 160.17, 39.32 105.67, 32.76 85.45 C26.2 65.22, 22.8 67.34, 20.3 58.04 C17.81 48.74, 21.2 39.31, 17.81 29.64 C14.43 19.96, 2.97 4.94, 0 0 M0 0 C-6.39 -6.93, -26.42 -28.46, -38.31 -41.57 C-50.2 -54.68, -55.84 -75.54, -71.32 -78.66 C-86.81 -81.79, -117.31 -64.87, -131.24 -60.32 C-145.16 -55.77, -144.75 -52.1, -154.88 -51.35 C-165 -50.61, -187.07 -58.83, -191.96 -55.84 C-196.85 -52.85, -185.59 -52.69, -184.22 -33.42 C-182.85 -14.15, -183.1 36.19, -183.77 59.8 C-184.44 83.42, -186.86 98.29, -188.23 108.28 C-189.6 118.27, -191.05 114.26, -191.97 119.74 C-192.88 125.22, -191.68 119.18, -193.71 141.17 C-195.75 163.15, -202.4 229.36, -204.18 251.63 C-205.95 273.9, -207.64 270.23, -204.34 274.79 C-201.05 279.34, -201.46 278.48, -184.41 278.98 C-167.35 279.48, -135.11 278.11, -102.03 277.79 C-68.95 277.46, -12.89 277.37, 14.08 277.04 C41.04 276.71, 50.49 277.77, 59.75 275.78 C69.01 273.79, 67.91 273.26, 69.64 265.08 C71.37 256.9, 71.07 237.44, 70.13 226.71 C69.2 215.98, 65.76 208.58, 64.01 200.69 C62.27 192.8, 64.88 198.58, 59.67 179.37 C54.46 160.17, 39.32 105.67, 32.76 85.45 C26.2 65.22, 22.8 67.34, 20.3 58.04 C17.81 48.74, 21.2 39.31, 17.81 29.64 C14.43 19.96, 2.97 4.94, 0 0" stroke="#394866" stroke-width="4" fill="none"></path></g></g><mask></mask><g stroke-linecap="round"><g transform="translate(209.3367683117528 544.9941585744559) rotate(0 64.35301175765173 47.60985410581736)" fill-rule="evenodd"><path d="M0 0 C4.37 0.51, 4.75 5.51, 26.21 3.04 C47.67 0.57, 110.03 -19.18, 128.76 -14.81 C147.5 -10.45, 138.13 14.43, 138.64 29.25 C139.15 44.06, 139.97 61.22, 131.8 74.07 C123.64 86.92, 107.05 100.78, 89.64 106.35 C72.23 111.92, 42.79 111.86, 27.35 107.49 C11.9 103.13, 3.48 87.93, -3.04 80.15 C-9.56 72.36, -12.28 69.19, -11.77 60.77 C-11.27 52.35, -1.96 39.76, 0 29.63 C1.96 19.5, 0 4.94, 0 0" stroke="none" stroke-width="0" fill="#969a99" fill-rule="evenodd"></path><path d="M0 0 C4.37 0.51, 4.75 5.51, 26.21 3.04 C47.67 0.57, 110.03 -19.18, 128.76 -14.81 C147.5 -10.45, 138.13 14.43, 138.64 29.25 C139.15 44.06, 139.97 61.22, 131.8 74.07 C123.64 86.92, 107.05 100.78, 89.64 106.35 C72.23 111.92, 42.79 111.86, 27.35 107.49 C11.9 103.13, 3.48 87.93, -3.04 80.15 C-9.56 72.36, -12.28 69.19, -11.77 60.77 C-11.27 52.35, -1.96 39.76, 0 29.63 C1.96 19.5, 0 4.94, 0 0 M0 0 C4.37 0.51, 4.75 5.51, 26.21 3.04 C47.67 0.57, 110.03 -19.18, 128.76 -14.81 C147.5 -10.45, 138.13 14.43, 138.64 29.25 C139.15 44.06, 139.97 61.22, 131.8 74.07 C123.64 86.92, 107.05 100.78, 89.64 106.35 C72.23 111.92, 42.79 111.86, 27.35 107.49 C11.9 103.13, 3.48 87.93, -3.04 80.15 C-9.56 72.36, -12.28 69.19, -11.77 60.77 C-11.27 52.35, -1.96 39.76, 0 29.63 C1.96 19.5, 0 4.94, 0 0" stroke="#394866" stroke-width="4" fill="none"></path></g></g><mask></mask><g stroke-linecap="round"><g transform="translate(247.9574371323584 215.54760252398637) rotate(0 52.814264732702384 29.46352797235477)"><path d="M0 0 C1.02 2.35, 4.66 10.48, 6.09 14.12 C7.52 17.77, 9.51 14.49, 8.59 21.88 C7.66 29.26, 2.72 49.48, 0.55 58.44 C-1.62 67.39, -2.22 70.76, -4.43 75.61 C-6.65 80.45, -12.79 84.01, -12.74 87.52 C-12.69 91.02, -9.05 95.92, -4.15 96.65 C0.74 97.39, 7.69 94.71, 16.62 91.95 C25.54 89.18, 42.34 82.21, 49.4 80.06 C56.45 77.91, 56.03 79.63, 58.94 79.02 C61.84 78.41, 62.93 78.12, 66.82 76.39 C70.7 74.67, 78.25 72.18, 82.25 68.68 C86.25 65.19, 88.25 58.9, 90.81 55.43 C93.37 51.95, 95.93 50.38, 97.63 47.83 C99.32 45.29, 99.86 43.89, 100.99 40.16 C102.12 36.43, 101.94 30.48, 104.41 25.45 C106.87 20.42, 113.59 15.09, 115.77 9.97 C117.95 4.86, 119.4 -1.28, 117.47 -5.25 C115.54 -9.22, 109.14 -11.4, 104.19 -13.85 C99.25 -16.3, 91.55 -17.86, 87.79 -19.94 C84.04 -22.03, 84.38 -25.13, 81.65 -26.36 C78.92 -27.58, 75.75 -25.55, 71.42 -27.29 C67.09 -29.03, 62.73 -41.49, 55.68 -36.8 C48.62 -32.12, 34.76 -7.98, 29.08 0.83 C23.4 9.64, 23.26 16.52, 21.6 16.06 C19.94 15.6, 20.22 4.48, 19.11 -1.94 C18 -8.35, 17.08 -18.14, 14.96 -22.43 C12.83 -26.73, 8.91 -29.73, 6.37 -27.69 C3.83 -25.66, 0.78 -14.86, -0.28 -10.25 C-1.34 -5.63, -0.05 -1.71, 0 0 M0 0 C1.02 2.35, 4.66 10.48, 6.09 14.12 C7.52 17.77, 9.51 14.49, 8.59 21.88 C7.66 29.26, 2.72 49.48, 0.55 58.44 C-1.62 67.39, -2.22 70.76, -4.43 75.61 C-6.65 80.45, -12.79 84.01, -12.74 87.52 C-12.69 91.02, -9.05 95.92, -4.15 96.65 C0.74 97.39, 7.69 94.71, 16.62 91.95 C25.54 89.18, 42.34 82.21, 49.4 80.06 C56.45 77.91, 56.03 79.63, 58.94 79.02 C61.84 78.41, 62.93 78.12, 66.82 76.39 C70.7 74.67, 78.25 72.18, 82.25 68.68 C86.25 65.19, 88.25 58.9, 90.81 55.43 C93.37 51.95, 95.93 50.38, 97.63 47.83 C99.32 45.29, 99.86 43.89, 100.99 40.16 C102.12 36.43, 101.94 30.48, 104.41 25.45 C106.87 20.42, 113.59 15.09, 115.77 9.97 C117.95 4.86, 119.4 -1.28, 117.47 -5.25 C115.54 -9.22, 109.14 -11.4, 104.19 -13.85 C99.25 -16.3, 91.55 -17.86, 87.79 -19.94 C84.04 -22.03, 84.38 -25.13, 81.65 -26.36 C78.92 -27.58, 75.75 -25.55, 71.42 -27.29 C67.09 -29.03, 62.73 -41.49, 55.68 -36.8 C48.62 -32.12, 34.76 -7.98, 29.08 0.83 C23.4 9.64, 23.26 16.52, 21.6 16.06 C19.94 15.6, 20.22 4.48, 19.11 -1.94 C18 -8.35, 17.08 -18.14, 14.96 -22.43 C12.83 -26.73, 8.91 -29.73, 6.37 -27.69 C3.83 -25.66, 0.78 -14.86, -0.28 -10.25 C-1.34 -5.63, -0.05 -1.71, 0 0" stroke="#1e1e1e" stroke-width="4" fill="none"></path></g></g><mask></mask><g stroke-linecap="round"><g stroke-opacity="0.7" fill-opacity="0.7" transform="translate(245.8716282558858 215.76207521852712) rotate(0 -46.588924749816215 38.99911289639056)" fill-rule="evenodd"><path d="M0 0 C-6.08 1.34, -25.27 4.74, -36.46 8.04 C-47.65 11.34, -57.5 14.4, -67.12 19.82 C-76.75 25.24, -89.28 34.78, -94.24 40.57 C-99.19 46.37, -96.42 50.83, -96.85 54.6 C-97.29 58.37, -95.61 61.2, -96.85 63.2 C-98.1 65.19, -104.49 64.35, -104.33 66.56 C-104.18 68.78, -98.88 75.54, -95.92 76.47 C-92.96 77.41, -89.84 72.58, -86.57 72.17 C-83.3 71.77, -79.9 73.08, -76.29 74.04 C-72.67 75.01, -75.57 78.34, -64.88 77.97 C-54.19 77.6, -23.15 73.86, -12.15 71.8 C-1.15 69.74, -2.43 72.33, 1.12 65.63 C4.67 58.93, 7.6 39.86, 9.16 31.6 C10.72 23.34, 12 21.35, 10.47 16.08 C8.94 10.81, 1.75 2.68, 0 0" stroke="none" stroke-width="0" fill="#969a99" fill-rule="evenodd"></path><path d="M0 0 C-6.08 1.34, -25.27 4.74, -36.46 8.04 C-47.65 11.34, -57.5 14.4, -67.12 19.82 C-76.75 25.24, -89.28 34.78, -94.24 40.57 C-99.19 46.37, -96.42 50.83, -96.85 54.6 C-97.29 58.37, -95.61 61.2, -96.85 63.2 C-98.1 65.19, -104.49 64.35, -104.33 66.56 C-104.18 68.78, -98.88 75.54, -95.92 76.47 C-92.96 77.41, -89.84 72.58, -86.57 72.17 C-83.3 71.77, -79.9 73.08, -76.29 74.04 C-72.67 75.01, -75.57 78.34, -64.88 77.97 C-54.19 77.6, -23.15 73.86, -12.15 71.8 C-1.15 69.74, -2.43 72.33, 1.12 65.63 C4.67 58.93, 7.6 39.86, 9.16 31.6 C10.72 23.34, 12 21.35, 10.47 16.08 C8.94 10.81, 1.75 2.68, 0 0 M0 0 C-6.08 1.34, -25.27 4.74, -36.46 8.04 C-47.65 11.34, -57.5 14.4, -67.12 19.82 C-76.75 25.24, -89.28 34.78, -94.24 40.57 C-99.19 46.37, -96.42 50.83, -96.85 54.6 C-97.29 58.37, -95.61 61.2, -96.85 63.2 C-98.1 65.19, -104.49 64.35, -104.33 66.56 C-104.18 68.78, -98.88 75.54, -95.92 76.47 C-92.96 77.41, -89.84 72.58, -86.57 72.17 C-83.3 71.77, -79.9 73.08, -76.29 74.04 C-72.67 75.01, -75.57 78.34, -64.88 77.97 C-54.19 77.6, -23.15 73.86, -12.15 71.8 C-1.15 69.74, -2.43 72.33, 1.12 65.63 C4.67 58.93, 7.6 39.86, 9.16 31.6 C10.72 23.34, 12 21.35, 10.47 16.08 C8.94 10.81, 1.75 2.68, 0 0" stroke="#1e1e1e" stroke-width="4" fill="none"></path></g></g><mask></mask><g stroke-linecap="round"><g transform="translate(177.43830921013677 237.07736946516343) rotate(0 28.17354746810267 13.431239288442498)"><path d="M0 0 C-3.05 2.65, -17.33 11.69, -18.32 15.89 C-19.32 20.1, -13.99 23.59, -5.98 25.24 C2.03 26.89, 16.27 27.61, 29.73 25.8 C43.19 24, 67.28 16.3, 74.79 14.4 M0 0 C-3.05 2.65, -17.33 11.69, -18.32 15.89 C-19.32 20.1, -13.99 23.59, -5.98 25.24 C2.03 26.89, 16.27 27.61, 29.73 25.8 C43.19 24, 67.28 16.3, 74.79 14.4" stroke="#1e1e1e" stroke-width="4" fill="none"></path></g></g><mask></mask><g stroke-linecap="round"><g transform="translate(242.95351923092295 288.09191326551036) rotate(0 -26.24309229052136 33.514619941307615)" fill-rule="evenodd"><path d="M0 0 C-3.88 4.64, -16.04 17.13, -23.29 27.86 C-30.55 38.6, -39.29 57.73, -43.52 64.41 C-47.75 71.09, -47.24 68.1, -48.68 67.92 C-50.11 67.74, -53.6 68.09, -52.13 63.33 C-50.66 58.58, -46.65 49.18, -39.84 39.39 C-33.03 29.6, -16.91 11.33, -11.29 4.59 C-5.67 -2.15, -7.58 -0.05, -6.12 -1.06 C-4.66 -2.07, -3.55 -1.65, -2.53 -1.47 C-1.51 -1.29, -0.42 -0.25, 0 0" stroke="none" stroke-width="0" fill="#bfc9cb" fill-rule="evenodd"></path><path d="M0 0 C-3.88 4.64, -16.04 17.13, -23.29 27.86 C-30.55 38.6, -39.29 57.73, -43.52 64.41 C-47.75 71.09, -47.24 68.1, -48.68 67.92 C-50.11 67.74, -53.6 68.09, -52.13 63.33 C-50.66 58.58, -46.65 49.18, -39.84 39.39 C-33.03 29.6, -16.91 11.33, -11.29 4.59 C-5.67 -2.15, -7.58 -0.05, -6.12 -1.06 C-4.66 -2.07, -3.55 -1.65, -2.53 -1.47 C-1.51 -1.29, -0.42 -0.25, 0 0 M0 0 C-3.88 4.64, -16.04 17.13, -23.29 27.86 C-30.55 38.6, -39.29 57.73, -43.52 64.41 C-47.75 71.09, -47.24 68.1, -48.68 67.92 C-50.11 67.74, -53.6 68.09, -52.13 63.33 C-50.66 58.58, -46.65 49.18, -39.84 39.39 C-33.03 29.6, -16.91 11.33, -11.29 4.59 C-5.67 -2.15, -7.58 -0.05, -6.12 -1.06 C-4.66 -2.07, -3.55 -1.65, -2.53 -1.47 C-1.51 -1.29, -0.42 -0.25, 0 0" stroke="#394866" stroke-width="4" fill="none"></path></g></g><mask></mask><g stroke-linecap="round"><g transform="translate(280.32415175726766 302.9417039248797) rotate(0 -3.147667417084108 14.289909196972076)" fill-rule="evenodd"><path d="M0 0 C1.29 -0.44, 7.55 -3.78, 7.75 -2.61 C7.96 -1.44, 3.17 3.59, 1.22 7.02 C-0.72 10.45, -2.72 14.54, -3.92 17.95 C-5.11 21.37, -4.38 25.32, -5.96 27.5 C-7.53 29.68, -12.21 32.53, -13.38 31.01 C-14.55 29.49, -14.05 22.1, -12.97 18.36 C-11.9 14.62, -9.1 11.63, -6.94 8.57 C-4.77 5.51, -1.16 1.43, 0 0" stroke="none" stroke-width="0" fill="#bfc9cb" fill-rule="evenodd"></path><path d="M0 0 C1.29 -0.44, 7.55 -3.78, 7.75 -2.61 C7.96 -1.44, 3.17 3.59, 1.22 7.02 C-0.72 10.45, -2.72 14.54, -3.92 17.95 C-5.11 21.37, -4.38 25.32, -5.96 27.5 C-7.53 29.68, -12.21 32.53, -13.38 31.01 C-14.55 29.49, -14.05 22.1, -12.97 18.36 C-11.9 14.62, -9.1 11.63, -6.94 8.57 C-4.77 5.51, -1.16 1.43, 0 0 M0 0 C1.29 -0.44, 7.55 -3.78, 7.75 -2.61 C7.96 -1.44, 3.17 3.59, 1.22 7.02 C-0.72 10.45, -2.72 14.54, -3.92 17.95 C-5.11 21.37, -4.38 25.32, -5.96 27.5 C-7.53 29.68, -12.21 32.53, -13.38 31.01 C-14.55 29.49, -14.05 22.1, -12.97 18.36 C-11.9 14.62, -9.1 11.63, -6.94 8.57 C-4.77 5.51, -1.16 1.43, 0 0" stroke="#394866" stroke-width="4" fill="none"></path></g></g><mask></mask><g stroke-linecap="round"><g stroke-opacity="0.8" fill-opacity="0.8" transform="translate(279.7039228957071 331.4430590396414) rotate(0 -75.2989497566926 48.24042601133067)"><path d="M0 0 C-9.14 4.02, -41.21 19.73, -54.82 24.12 C-68.43 28.51, -72.36 29.6, -81.68 26.31 C-91 23.02, -103.79 8.5, -110.73 4.39 C-117.68 0.27, -119.14 1.55, -123.34 1.64 C-127.54 1.74, -132.48 2.74, -135.95 4.93 C-139.42 7.13, -141.8 10.14, -144.17 14.8 C-146.55 19.46, -152.12 24.67, -150.2 32.89 C-148.28 41.11, -140.61 54.27, -132.66 64.14 C-124.71 74.01, -109.91 86.7, -102.51 92.1 C-95.11 97.49, -90.63 95.75, -88.26 96.48 M0 0 C-9.14 4.02, -41.21 19.73, -54.82 24.12 C-68.43 28.51, -72.36 29.6, -81.68 26.31 C-91 23.02, -103.79 8.5, -110.73 4.39 C-117.68 0.27, -119.14 1.55, -123.34 1.64 C-127.54 1.74, -132.48 2.74, -135.95 4.93 C-139.42 7.13, -141.8 10.14, -144.17 14.8 C-146.55 19.46, -152.12 24.67, -150.2 32.89 C-148.28 41.11, -140.61 54.27, -132.66 64.14 C-124.71 74.01, -109.91 86.7, -102.51 92.1 C-95.11 97.49, -90.63 95.75, -88.26 96.48" stroke="#343a40" stroke-width="4" fill="none"></path></g></g><mask></mask><g stroke-linecap="round"><g transform="translate(196.6861901825992 436.4738021260446) rotate(0 -58.03994674698984 -16.27940749918298)"><path d="M0 0 C-0.13 3.23, 3.02 12.16, -0.78 19.4 C-4.57 26.64, -16.25 38.84, -22.76 43.45 C-29.27 48.06, -34.57 48.11, -39.83 47.07 C-45.09 46.04, -47.59 41.9, -54.32 37.24 C-61.04 32.59, -73.5 25.48, -80.18 19.14 C-86.86 12.8, -89.58 7.97, -94.41 -0.78 C-99.23 -9.53, -106.56 -25.05, -109.15 -33.37 C-111.73 -41.68, -109 -45.99, -109.92 -50.69 C-110.85 -55.4, -113.6 -58.6, -114.72 -61.62 C-115.84 -64.64, -118.26 -66.56, -116.64 -68.8 C-115.01 -71.03, -107.93 -75.43, -104.96 -75.04 C-101.99 -74.66, -102.93 -67.38, -98.8 -66.47 C-94.67 -65.56, -85.44 -67.29, -80.18 -69.58 C-74.92 -71.86, -69.4 -78.41, -67.25 -80.18 M0 0 C-0.13 3.23, 3.02 12.16, -0.78 19.4 C-4.57 26.64, -16.25 38.84, -22.76 43.45 C-29.27 48.06, -34.57 48.11, -39.83 47.07 C-45.09 46.04, -47.59 41.9, -54.32 37.24 C-61.04 32.59, -73.5 25.48, -80.18 19.14 C-86.86 12.8, -89.58 7.97, -94.41 -0.78 C-99.23 -9.53, -106.56 -25.05, -109.15 -33.37 C-111.73 -41.68, -109 -45.99, -109.92 -50.69 C-110.85 -55.4, -113.6 -58.6, -114.72 -61.62 C-115.84 -64.64, -118.26 -66.56, -116.64 -68.8 C-115.01 -71.03, -107.93 -75.43, -104.96 -75.04 C-101.99 -74.66, -102.93 -67.38, -98.8 -66.47 C-94.67 -65.56, -85.44 -67.29, -80.18 -69.58 C-74.92 -71.86, -69.4 -78.41, -67.25 -80.18" stroke="#343a40" stroke-width="4" fill="none"></path></g></g><mask></mask><g stroke-linecap="round"><g transform="translate(335.94223108315185 281.0417488294556) rotate(0 25.636540067672968 100.16065183170076)"><path d="M0 0 C3.61 0.64, 14.95 -0.58, 21.66 3.87 C28.36 8.31, 36.67 14.05, 40.22 26.68 C43.76 39.32, 42.41 67.29, 42.93 79.66 C43.44 92.04, 44.15 94.62, 43.31 100.93 C42.47 107.25, 38.87 111.76, 37.9 117.56 C36.93 123.36, 37.13 131.03, 37.51 135.74 C37.9 140.44, 37.96 141.28, 40.22 145.79 C42.47 150.31, 49.82 153.72, 51.05 162.81 C52.27 171.9, 48.15 194.07, 47.57 200.32 M0 0 C3.61 0.64, 14.95 -0.58, 21.66 3.87 C28.36 8.31, 36.67 14.05, 40.22 26.68 C43.76 39.32, 42.41 67.29, 42.93 79.66 C43.44 92.04, 44.15 94.62, 43.31 100.93 C42.47 107.25, 38.87 111.76, 37.9 117.56 C36.93 123.36, 37.13 131.03, 37.51 135.74 C37.9 140.44, 37.96 141.28, 40.22 145.79 C42.47 150.31, 49.82 153.72, 51.05 162.81 C52.27 171.9, 48.15 194.07, 47.57 200.32" stroke="#343a40" stroke-width="4" fill="none"></path></g></g><mask></mask><g stroke-linecap="round"><g transform="translate(246.82353850904184 207.20263794568564) rotate(0 61.497628345832595 -31.607205273157433)"><path d="M0 0 C0.06 -3.22, -0.91 -13.7, 0.33 -19.31 C1.57 -24.92, 4.95 -28.03, 7.43 -33.67 C9.9 -39.31, 10.59 -48.44, 15.18 -53.14 C19.78 -57.85, 30.01 -60.16, 34.99 -61.89 C39.97 -63.62, 40.76 -62.58, 45.05 -63.54 C49.35 -64.5, 54.79 -67.55, 60.73 -67.66 C66.67 -67.77, 75.78 -66.26, 80.7 -64.2 C85.63 -62.14, 86.95 -57.29, 90.27 -55.29 C93.6 -53.28, 97.87 -54.13, 100.67 -52.15 C103.48 -50.17, 104.44 -47.04, 107.11 -43.4 C109.78 -39.77, 114.15 -34.63, 116.68 -30.37 C119.21 -26.1, 121.22 -22.17, 122.29 -17.82 C123.36 -13.48, 123.47 -8, 123.12 -4.29 C122.76 -0.58, 120.64 3, 120.15 4.46 M0 0 C0.06 -3.22, -0.91 -13.7, 0.33 -19.31 C1.57 -24.92, 4.95 -28.03, 7.43 -33.67 C9.9 -39.31, 10.59 -48.44, 15.18 -53.14 C19.78 -57.85, 30.01 -60.16, 34.99 -61.89 C39.97 -63.62, 40.76 -62.58, 45.05 -63.54 C49.35 -64.5, 54.79 -67.55, 60.73 -67.66 C66.67 -67.77, 75.78 -66.26, 80.7 -64.2 C85.63 -62.14, 86.95 -57.29, 90.27 -55.29 C93.6 -53.28, 97.87 -54.13, 100.67 -52.15 C103.48 -50.17, 104.44 -47.04, 107.11 -43.4 C109.78 -39.77, 114.15 -34.63, 116.68 -30.37 C119.21 -26.1, 121.22 -22.17, 122.29 -17.82 C123.36 -13.48, 123.47 -8, 123.12 -4.29 C122.76 -0.58, 120.64 3, 120.15 4.46" stroke="#343a40" stroke-width="4" fill="none"></path></g></g><mask></mask><g stroke-linecap="round"><g stroke-opacity="0.8" fill-opacity="0.8" transform="translate(263.34534469011277 254.45601586600287) rotate(0 17.732746009924313 19.905135291029637)"><path d="M0 0 C0.52 1.97, 0.86 7.59, 3.13 11.82 C5.41 16.05, 8.25 20.7, 13.64 25.36 C19.03 30.03, 31.83 37.4, 35.47 39.81 M0 0 C0.52 1.97, 0.86 7.59, 3.13 11.82 C5.41 16.05, 8.25 20.7, 13.64 25.36 C19.03 30.03, 31.83 37.4, 35.47 39.81" stroke="#343a40" stroke-width="4" fill="none"></path></g></g><mask></mask><g stroke-linecap="round"><g stroke-opacity="0.8" fill-opacity="0.8" transform="translate(142.5094200907816 279.8945161670067) rotate(0 -33.69735947970443 39.69893745543891)"><path d="M0 0 C-1.42 -0.4, -4.79 -1.68, -8.49 -2.43 C-12.2 -3.17, -17.93 -4.14, -22.24 -4.45 C-26.55 -4.75, -30.6 -4.92, -34.37 -4.25 C-38.15 -3.57, -42.59 -2.97, -44.89 -0.4 C-47.18 2.16, -47.65 6.94, -48.12 11.12 C-48.59 15.3, -46.74 21.36, -47.72 24.67 C-48.69 27.97, -51.05 28.21, -53.99 30.94 C-56.92 33.66, -63.32 37.34, -65.31 41.04 C-67.3 44.75, -68.51 47.41, -65.91 53.18 C-63.32 58.94, -52.5 70.46, -49.74 75.62 C-46.98 80.78, -49.4 82.7, -49.33 84.11 M0 0 C-1.42 -0.4, -4.79 -1.68, -8.49 -2.43 C-12.2 -3.17, -17.93 -4.14, -22.24 -4.45 C-26.55 -4.75, -30.6 -4.92, -34.37 -4.25 C-38.15 -3.57, -42.59 -2.97, -44.89 -0.4 C-47.18 2.16, -47.65 6.94, -48.12 11.12 C-48.59 15.3, -46.74 21.36, -47.72 24.67 C-48.69 27.97, -51.05 28.21, -53.99 30.94 C-56.92 33.66, -63.32 37.34, -65.31 41.04 C-67.3 44.75, -68.51 47.41, -65.91 53.18 C-63.32 58.94, -52.5 70.46, -49.74 75.62 C-46.98 80.78, -49.4 82.7, -49.33 84.11" stroke="#343a40" stroke-width="4" fill="none"></path></g></g><mask></mask><g stroke-linecap="round"><g transform="translate(85.17338679152562 330.68234656628147) rotate(0 -0.5791528600912272 7.1851907287560834)" fill-rule="evenodd"><path d="M0 0 C-1.75 1.22, -10.11 4.95, -10.53 7.34 C-10.94 9.73, -5.79 13.93, -2.48 14.33 C0.84 14.73, 8.96 12.12, 9.38 9.73 C9.79 7.34, 1.56 1.62, 0 0" stroke="none" stroke-width="0" fill="#969a99" fill-rule="evenodd"></path><path d="M0 0 C-1.75 1.22, -10.11 4.95, -10.53 7.34 C-10.94 9.73, -5.79 13.93, -2.48 14.33 C0.84 14.73, 8.96 12.12, 9.38 9.73 C9.79 7.34, 1.56 1.62, 0 0 M0 0 C-1.75 1.22, -10.11 4.95, -10.53 7.34 C-10.94 9.73, -5.79 13.93, -2.48 14.33 C0.84 14.73, 8.96 12.12, 9.38 9.73 C9.79 7.34, 1.56 1.62, 0 0" stroke="#1e1e1e" stroke-width="4" fill="none"></path></g></g><mask></mask><g stroke-linecap="round"><g stroke-opacity="0.8" fill-opacity="0.8" transform="translate(129.76978847979802 352.4811846998714) rotate(0 -13.937232881684082 -27.467390965872028)"><path d="M0 0 C-0.37 -1.38, -2.76 -5.59, -2.22 -8.29 C-1.68 -10.99, 3.37 -13.21, 3.24 -16.18 C3.1 -19.14, 0.07 -22.71, -3.03 -26.08 C-6.13 -29.45, -10.95 -31.61, -15.37 -36.39 C-19.78 -41.18, -26.93 -53.38, -29.52 -54.79 C-32.11 -56.21, -30.7 -46.54, -30.94 -44.89 M0 0 C-0.37 -1.38, -2.76 -5.59, -2.22 -8.29 C-1.68 -10.99, 3.37 -13.21, 3.24 -16.18 C3.1 -19.14, 0.07 -22.71, -3.03 -26.08 C-6.13 -29.45, -10.95 -31.61, -15.37 -36.39 C-19.78 -41.18, -26.93 -53.38, -29.52 -54.79 C-32.11 -56.21, -30.7 -46.54, -30.94 -44.89" stroke="#343a40" stroke-width="4" fill="none"></path></g></g><mask></mask><g stroke-linecap="round"><g transform="translate(681.0004429189471 402.00911761475936) rotate(0 -67.24072150302072 91.46220190556949)"><path d="M0 0 C-5.15 -0.66, -22.42 -4.85, -30.87 -3.97 C-39.33 -3.09, -42.49 -0.74, -50.72 5.29 C-58.95 11.32, -69.61 18.45, -80.27 32.2 C-90.93 45.94, -105.7 69.68, -114.67 87.77 C-123.64 105.85, -132.38 128.56, -134.07 140.69 C-135.77 152.82, -132.09 155.61, -124.81 160.54 C-117.54 165.46, -99.16 168.62, -90.41 170.24 C-81.67 171.86, -81.22 167.52, -72.33 170.24 C-63.44 172.96, -45.28 185.01, -37.05 186.56 C-28.81 188.1, -28.15 185.73, -22.93 179.5 C-17.72 173.27, -8.63 154.22, -5.77 149.17 M0 0 C-5.15 -0.66, -22.42 -4.85, -30.87 -3.97 C-39.33 -3.09, -42.49 -0.74, -50.72 5.29 C-58.95 11.32, -69.61 18.45, -80.27 32.2 C-90.93 45.94, -105.7 69.68, -114.67 87.77 C-123.64 105.85, -132.38 128.56, -134.07 140.69 C-135.77 152.82, -132.09 155.61, -124.81 160.54 C-117.54 165.46, -99.16 168.62, -90.41 170.24 C-81.67 171.86, -81.22 167.52, -72.33 170.24 C-63.44 172.96, -45.28 185.01, -37.05 186.56 C-28.81 188.1, -28.15 185.73, -22.93 179.5 C-17.72 173.27, -8.63 154.22, -5.77 149.17" stroke="#343a40" stroke-width="4" fill="none"></path></g></g><mask></mask><g stroke-linecap="round"><g transform="translate(596.6613420486776 573.9579117764388) rotate(0 76.70750663965225 76.98932743611522)" fill-rule="evenodd"><path d="M0 0 C-3.5 6.45, -15.47 24.54, -20.98 38.73 C-26.49 52.92, -29.45 63.47, -33.08 85.12 C-36.71 106.78, -45.52 153.31, -42.76 168.64 C-40.01 183.97, -40.61 176.1, -16.54 177.11 C7.53 178.12, 67.31 174.89, 101.67 174.69 C136.02 174.49, 175.09 179.46, 189.61 175.9 C204.14 172.33, 192.44 166.69, 188.81 153.31 C185.18 139.92, 171.33 107.92, 167.83 95.61 C164.33 83.31, 172.32 84.15, 167.83 79.48 C163.34 74.8, 148.28 70.14, 140.88 67.56 C133.49 64.98, 129.78 71.16, 123.44 64 C117.11 56.84, 106.17 33.06, 102.88 24.61 C99.58 16.16, 105.5 16.34, 103.68 13.31 C101.87 10.29, 94.8 10.31, 91.98 6.45 C89.16 2.6, 88.97 -4.83, 86.77 -9.83 C84.56 -14.83, 83.32 -27.35, 78.75 -23.56 C74.17 -19.77, 65.94 7.03, 59.3 12.91 C52.67 18.79, 46.15 13.76, 38.95 11.73 C31.76 9.71, 22.63 2.72, 16.14 0.76 C9.65 -1.19, 2.69 0.13, 0 0" stroke="none" stroke-width="0" fill="#c0a788" fill-rule="evenodd"></path><path d="M0 0 C-3.5 6.45, -15.47 24.54, -20.98 38.73 C-26.49 52.92, -29.45 63.47, -33.08 85.12 C-36.71 106.78, -45.52 153.31, -42.76 168.64 C-40.01 183.97, -40.61 176.1, -16.54 177.11 C7.53 178.12, 67.31 174.89, 101.67 174.69 C136.02 174.49, 175.09 179.46, 189.61 175.9 C204.14 172.33, 192.44 166.69, 188.81 153.31 C185.18 139.92, 171.33 107.92, 167.83 95.61 C164.33 83.31, 172.32 84.15, 167.83 79.48 C163.34 74.8, 148.28 70.14, 140.88 67.56 C133.49 64.98, 129.78 71.16, 123.44 64 C117.11 56.84, 106.17 33.06, 102.88 24.61 C99.58 16.16, 105.5 16.34, 103.68 13.31 C101.87 10.29, 94.8 10.31, 91.98 6.45 C89.16 2.6, 88.97 -4.83, 86.77 -9.83 C84.56 -14.83, 83.32 -27.35, 78.75 -23.56 C74.17 -19.77, 65.94 7.03, 59.3 12.91 C52.67 18.79, 46.15 13.76, 38.95 11.73 C31.76 9.71, 22.63 2.72, 16.14 0.76 C9.65 -1.19, 2.69 0.13, 0 0 M0 0 C-3.5 6.45, -15.47 24.54, -20.98 38.73 C-26.49 52.92, -29.45 63.47, -33.08 85.12 C-36.71 106.78, -45.52 153.31, -42.76 168.64 C-40.01 183.97, -40.61 176.1, -16.54 177.11 C7.53 178.12, 67.31 174.89, 101.67 174.69 C136.02 174.49, 175.09 179.46, 189.61 175.9 C204.14 172.33, 192.44 166.69, 188.81 153.31 C185.18 139.92, 171.33 107.92, 167.83 95.61 C164.33 83.31, 172.32 84.15, 167.83 79.48 C163.34 74.8, 148.28 70.14, 140.88 67.56 C133.49 64.98, 129.78 71.16, 123.44 64 C117.11 56.84, 106.17 33.06, 102.88 24.61 C99.58 16.16, 105.5 16.34, 103.68 13.31 C101.87 10.29, 94.8 10.31, 91.98 6.45 C89.16 2.6, 88.97 -4.83, 86.77 -9.83 C84.56 -14.83, 83.32 -27.35, 78.75 -23.56 C74.17 -19.77, 65.94 7.03, 59.3 12.91 C52.67 18.79, 46.15 13.76, 38.95 11.73 C31.76 9.71, 22.63 2.72, 16.14 0.76 C9.65 -1.19, 2.69 0.13, 0 0" stroke="#473d22" stroke-width="4" fill="none"></path></g></g><mask></mask><g stroke-linecap="round"><g transform="translate(765.5444735646779 534.2336745328125) rotate(0 -21.30788162197655 23.074075294382283)"><path d="M0 0 C-0.67 3.91, -2.69 16.98, -4.03 23.45 C-5.38 29.92, -6.05 35.04, -8.07 38.83 C-10.08 42.61, -12.35 45.88, -16.14 46.14 C-19.92 46.39, -26.66 42.37, -30.76 40.34 C-34.85 38.31, -38.79 37.07, -40.72 33.95 C-42.65 30.84, -42.93 25.11, -42.34 21.65 C-41.75 18.19, -38.02 14.59, -37.16 13.18 M0 0 C-0.67 3.91, -2.69 16.98, -4.03 23.45 C-5.38 29.92, -6.05 35.04, -8.07 38.83 C-10.08 42.61, -12.35 45.88, -16.14 46.14 C-19.92 46.39, -26.66 42.37, -30.76 40.34 C-34.85 38.31, -38.79 37.07, -40.72 33.95 C-42.65 30.84, -42.93 25.11, -42.34 21.65 C-41.75 18.19, -38.02 14.59, -37.16 13.18" stroke="#473d22" stroke-width="4" fill="none"></path></g></g><mask></mask><g stroke-linecap="round"><g transform="translate(650.3654683855989 463.6725119954881) rotate(0 17.47005534420532 -28.875983234282785)" fill-rule="evenodd"><path d="M0 0 C4.41 -8.31, 21 -40.23, 26.43 -49.84 C31.86 -59.46, 31.25 -57.29, 32.57 -57.71 C33.88 -58.14, 34.05 -54.84, 34.3 -52.39 C34.55 -49.94, 35.73 -47.36, 34.07 -43.02 C32.41 -38.68, 27.07 -31.62, 24.35 -26.35 C21.63 -21.08, 20.04 -15.47, 17.75 -11.42 C15.46 -7.37, 13.55 -3.94, 10.59 -2.04 C7.64 -0.14, 1.77 -0.34, 0 0" stroke="none" stroke-width="0" fill="#c0a788" fill-rule="evenodd"></path><path d="M0 0 C4.41 -8.31, 21 -40.23, 26.43 -49.84 C31.86 -59.46, 31.25 -57.29, 32.57 -57.71 C33.88 -58.14, 34.05 -54.84, 34.3 -52.39 C34.55 -49.94, 35.73 -47.36, 34.07 -43.02 C32.41 -38.68, 27.07 -31.62, 24.35 -26.35 C21.63 -21.08, 20.04 -15.47, 17.75 -11.42 C15.46 -7.37, 13.55 -3.94, 10.59 -2.04 C7.64 -0.14, 1.77 -0.34, 0 0 M0 0 C4.41 -8.31, 21 -40.23, 26.43 -49.84 C31.86 -59.46, 31.25 -57.29, 32.57 -57.71 C33.88 -58.14, 34.05 -54.84, 34.3 -52.39 C34.55 -49.94, 35.73 -47.36, 34.07 -43.02 C32.41 -38.68, 27.07 -31.62, 24.35 -26.35 C21.63 -21.08, 20.04 -15.47, 17.75 -11.42 C15.46 -7.37, 13.55 -3.94, 10.59 -2.04 C7.64 -0.14, 1.77 -0.34, 0 0" stroke="#473d22" stroke-width="4" fill="none"></path></g></g><mask></mask><g stroke-linecap="round"><g transform="translate(717.0683938796947 523.7628206060476) rotate(0 10.230976625059384 6.448867115531812)"><path d="M0 0 C1.37 -0.18, 5.55 -1.71, 8.19 -1.07 C10.83 -0.43, 13.93 2.16, 15.82 3.83 C17.72 5.5, 18.79 7.23, 19.56 8.95 C20.33 10.66, 20.31 13.26, 20.46 14.12 M0 0 C1.37 -0.18, 5.55 -1.71, 8.19 -1.07 C10.83 -0.43, 13.93 2.16, 15.82 3.83 C17.72 5.5, 18.79 7.23, 19.56 8.95 C20.33 10.66, 20.31 13.26, 20.46 14.12" stroke="#343a40" stroke-width="4" fill="none"></path></g></g><mask></mask><g stroke-linecap="round"><g transform="translate(656.3888337917265 548.9725363743905) rotate(0 38.34049872306548 1.01290735661496)"><path d="M0 0 C2.83 -0.72, 13.96 -2.39, 16.95 -4.32 C19.94 -6.26, 15.82 -9.61, 17.94 -11.62 C20.07 -13.63, 24.11 -13.43, 29.7 -16.38 C35.29 -19.33, 44.28 -30.84, 51.48 -29.34 C58.68 -27.84, 70.35 -13.23, 72.9 -7.38 C75.45 -1.53, 67.71 1.5, 66.78 5.76 C65.85 10.02, 65.67 13.89, 67.32 18.18 C68.97 22.47, 75.12 29.28, 76.68 31.5 M0 0 C2.83 -0.72, 13.96 -2.39, 16.95 -4.32 C19.94 -6.26, 15.82 -9.61, 17.94 -11.62 C20.07 -13.63, 24.11 -13.43, 29.7 -16.38 C35.29 -19.33, 44.28 -30.84, 51.48 -29.34 C58.68 -27.84, 70.35 -13.23, 72.9 -7.38 C75.45 -1.53, 67.71 1.5, 66.78 5.76 C65.85 10.02, 65.67 13.89, 67.32 18.18 C68.97 22.47, 75.12 29.28, 76.68 31.5" stroke="#343a40" stroke-width="4" fill="none"></path></g></g><mask></mask><g stroke-linecap="round"><g transform="translate(731.2698127823114 632.9703513843497) rotate(0 -15.210200144939677 -22.230293095740763)"><path d="M0 0 C-2.94 -3.72, -12.57 -14.91, -17.64 -22.32 C-22.71 -29.73, -28.29 -40.77, -30.42 -44.46 M0 0 C-2.94 -3.72, -12.57 -14.91, -17.64 -22.32 C-22.71 -29.73, -28.29 -40.77, -30.42 -44.46" stroke="#343a40" stroke-width="4" fill="none"></path></g></g><mask></mask><g stroke-linecap="round"><g transform="translate(751.8392533813455 453.84582163906725) rotate(0 61.133308118229024 39.64799661817358)" fill-rule="evenodd"><path d="M0 0 C-0.2 4.51, -1.4 20.64, -1.19 27.04 C-0.97 33.45, -0.93 35.9, 1.29 38.41 C3.51 40.93, 8.69 40.05, 12.13 42.14 C15.57 44.24, 20.33 48.1, 21.93 50.99 C23.53 53.88, 22.03 56.65, 21.76 59.49 C21.48 62.33, 19.45 66.25, 20.26 68.04 C21.07 69.83, 25.57 68.35, 26.61 70.25 C27.66 72.15, 23.94 75.77, 26.53 79.44 C29.12 83.11, 32.44 87.91, 42.15 92.28 C51.87 96.64, 73.13 106.17, 84.8 105.65 C96.47 105.13, 105.72 98.12, 112.16 89.15 C118.61 80.17, 123 62.74, 123.46 51.8 C123.91 40.86, 118.28 31.2, 114.88 23.53 C111.48 15.86, 110.37 12.78, 103.04 5.76 C95.71 -1.25, 82.92 -13.2, 70.9 -18.56 C58.89 -23.91, 40.57 -26.44, 30.95 -26.38 C21.33 -26.31, 18.36 -22.55, 13.2 -18.16 C8.04 -13.76, 2.2 -3.03, 0 0" stroke="none" stroke-width="0" fill="#c0a788" fill-rule="evenodd"></path><path d="M0 0 C-0.2 4.51, -1.4 20.64, -1.19 27.04 C-0.97 33.45, -0.93 35.9, 1.29 38.41 C3.51 40.93, 8.69 40.05, 12.13 42.14 C15.57 44.24, 20.33 48.1, 21.93 50.99 C23.53 53.88, 22.03 56.65, 21.76 59.49 C21.48 62.33, 19.45 66.25, 20.26 68.04 C21.07 69.83, 25.57 68.35, 26.61 70.25 C27.66 72.15, 23.94 75.77, 26.53 79.44 C29.12 83.11, 32.44 87.91, 42.15 92.28 C51.87 96.64, 73.13 106.17, 84.8 105.65 C96.47 105.13, 105.72 98.12, 112.16 89.15 C118.61 80.17, 123 62.74, 123.46 51.8 C123.91 40.86, 118.28 31.2, 114.88 23.53 C111.48 15.86, 110.37 12.78, 103.04 5.76 C95.71 -1.25, 82.92 -13.2, 70.9 -18.56 C58.89 -23.91, 40.57 -26.44, 30.95 -26.38 C21.33 -26.31, 18.36 -22.55, 13.2 -18.16 C8.04 -13.76, 2.2 -3.03, 0 0 M0 0 C-0.2 4.51, -1.4 20.64, -1.19 27.04 C-0.97 33.45, -0.93 35.9, 1.29 38.41 C3.51 40.93, 8.69 40.05, 12.13 42.14 C15.57 44.24, 20.33 48.1, 21.93 50.99 C23.53 53.88, 22.03 56.65, 21.76 59.49 C21.48 62.33, 19.45 66.25, 20.26 68.04 C21.07 69.83, 25.57 68.35, 26.61 70.25 C27.66 72.15, 23.94 75.77, 26.53 79.44 C29.12 83.11, 32.44 87.91, 42.15 92.28 C51.87 96.64, 73.13 106.17, 84.8 105.65 C96.47 105.13, 105.72 98.12, 112.16 89.15 C118.61 80.17, 123 62.74, 123.46 51.8 C123.91 40.86, 118.28 31.2, 114.88 23.53 C111.48 15.86, 110.37 12.78, 103.04 5.76 C95.71 -1.25, 82.92 -13.2, 70.9 -18.56 C58.89 -23.91, 40.57 -26.44, 30.95 -26.38 C21.33 -26.31, 18.36 -22.55, 13.2 -18.16 C8.04 -13.76, 2.2 -3.03, 0 0" stroke="#2b2015" stroke-width="4" fill="none"></path></g></g><mask></mask><g stroke-linecap="round"><g transform="translate(629.0828628260242 508.06538565157325) rotate(0 57.34156179911486 -23.094824744900848)"><path d="M0 0 C2.21 -4.06, 9.06 -16.67, 13.27 -24.35 C17.49 -32.03, 16.78 -44.76, 25.28 -46.08 C33.77 -47.39, 49.32 -36.93, 64.23 -32.24 C79.13 -27.56, 106.27 -20.34, 114.68 -17.96 M0 0 C2.21 -4.06, 9.06 -16.67, 13.27 -24.35 C17.49 -32.03, 16.78 -44.76, 25.28 -46.08 C33.77 -47.39, 49.32 -36.93, 64.23 -32.24 C79.13 -27.56, 106.27 -20.34, 114.68 -17.96" stroke="#473d22" stroke-width="4" fill="none"></path></g></g><mask></mask><g stroke-linecap="round"><g transform="translate(776.2102840847597 451.61732965979036) rotate(0 43.57501326710019 30.911109538169512)"><path d="M0 0 C-0.19 4.06, -4.81 14.86, -1.12 24.36 C2.56 33.85, 11.68 48.03, 22.11 56.96 C32.54 65.89, 50.59 76.75, 61.45 77.94 C72.32 79.13, 82.97 71.69, 87.31 64.08 C91.65 56.46, 89.04 41.03, 87.5 32.22 C85.96 23.42, 85.17 18.55, 78.08 11.24 C70.99 3.93, 55.73 -7.18, 44.96 -11.62 C34.2 -16.05, 20.98 -17.3, 13.49 -15.36 C6 -13.43, 2.25 -2.56, 0 0 M0 0 C-0.19 4.06, -4.81 14.86, -1.12 24.36 C2.56 33.85, 11.68 48.03, 22.11 56.96 C32.54 65.89, 50.59 76.75, 61.45 77.94 C72.32 79.13, 82.97 71.69, 87.31 64.08 C91.65 56.46, 89.04 41.03, 87.5 32.22 C85.96 23.42, 85.17 18.55, 78.08 11.24 C70.99 3.93, 55.73 -7.18, 44.96 -11.62 C34.2 -16.05, 20.98 -17.3, 13.49 -15.36 C6 -13.43, 2.25 -2.56, 0 0" stroke="#2b2015" stroke-width="4" fill="none"></path></g></g><mask></mask><g stroke-linecap="round"><g transform="translate(680.8655368807758 400.46142809684443) rotate(0 39.68008963192352 -18.217487642831202)"><path d="M0 0 C-0.21 -1.61, 0.21 -7.13, -1.23 -9.67 C-2.67 -12.2, -7.71 -11.89, -8.64 -15.22 C-9.56 -18.54, -7.54 -26.5, -6.79 -29.62 C-6.03 -32.73, -4.14 -32.25, -4.09 -33.91 C-4.04 -35.57, -6.16 -37.42, -6.47 -39.58 C-6.78 -41.73, -5.55 -43.86, -5.94 -46.83 C-6.34 -49.79, -9.15 -52.4, -8.84 -57.38 C-8.54 -62.36, -7.47 -72.15, -4.11 -76.71 C-0.75 -81.27, 5.62 -84.26, 11.31 -84.73 C17 -85.21, 25.4 -82.51, 30.03 -79.59 C34.65 -76.68, 37.16 -71.5, 39.08 -67.25 C41 -63, 38.12 -59.16, 41.54 -54.09 C44.97 -49.02, 53.3 -39.35, 59.64 -36.81 C65.98 -34.28, 74.83 -39.52, 79.59 -38.87 C84.36 -38.22, 88.03 -35.79, 88.23 -32.91 C88.44 -30.03, 82.27 -25.4, 80.83 -21.6 C79.39 -17.79, 79.94 -14.77, 79.59 -10.08 C79.25 -5.38, 78.32 1.34, 78.77 6.58 C79.22 11.83, 81.79 17.24, 82.27 21.39 C82.75 25.54, 85.63 27.22, 81.65 31.47 C77.67 35.72, 66.22 44.42, 58.41 46.89 C50.59 49.36, 40.14 48.4, 34.76 46.28 C29.38 44.15, 28.69 37.74, 26.12 34.14 C23.55 30.54, 20.46 26.26, 19.33 24.68 M0 0 C-0.21 -1.61, 0.21 -7.13, -1.23 -9.67 C-2.67 -12.2, -7.71 -11.89, -8.64 -15.22 C-9.56 -18.54, -7.54 -26.5, -6.79 -29.62 C-6.03 -32.73, -4.14 -32.25, -4.09 -33.91 C-4.04 -35.57, -6.16 -37.42, -6.47 -39.58 C-6.78 -41.73, -5.55 -43.86, -5.94 -46.83 C-6.34 -49.79, -9.15 -52.4, -8.84 -57.38 C-8.54 -62.36, -7.47 -72.15, -4.11 -76.71 C-0.75 -81.27, 5.62 -84.26, 11.31 -84.73 C17 -85.21, 25.4 -82.51, 30.03 -79.59 C34.65 -76.68, 37.16 -71.5, 39.08 -67.25 C41 -63, 38.12 -59.16, 41.54 -54.09 C44.97 -49.02, 53.3 -39.35, 59.64 -36.81 C65.98 -34.28, 74.83 -39.52, 79.59 -38.87 C84.36 -38.22, 88.03 -35.79, 88.23 -32.91 C88.44 -30.03, 82.27 -25.4, 80.83 -21.6 C79.39 -17.79, 79.94 -14.77, 79.59 -10.08 C79.25 -5.38, 78.32 1.34, 78.77 6.58 C79.22 11.83, 81.79 17.24, 82.27 21.39 C82.75 25.54, 85.63 27.22, 81.65 31.47 C77.67 35.72, 66.22 44.42, 58.41 46.89 C50.59 49.36, 40.14 48.4, 34.76 46.28 C29.38 44.15, 28.69 37.74, 26.12 34.14 C23.55 30.54, 20.46 26.26, 19.33 24.68" stroke="#2b2015" stroke-width="4" fill="none"></path></g></g><mask></mask><g stroke-linecap="round"><g transform="translate(681.8938794369028 397.5820860573335) rotate(0 21.59506957574115 13.117163335232021)"><path d="M0 0 C0.72 1.58, 3.26 6.03, 4.32 9.46 C5.38 12.89, 4.7 17.89, 6.38 20.57 C8.06 23.24, 10.69 24.61, 14.4 25.5 C18.1 26.39, 23.79 26.39, 28.59 25.91 C33.39 25.43, 40.76 23.17, 43.19 22.62 M0 0 C0.72 1.58, 3.26 6.03, 4.32 9.46 C5.38 12.89, 4.7 17.89, 6.38 20.57 C8.06 23.24, 10.69 24.61, 14.4 25.5 C18.1 26.39, 23.79 26.39, 28.59 25.91 C33.39 25.43, 40.76 23.17, 43.19 22.62" stroke="#2b2015" stroke-width="4" fill="none"></path></g></g><mask></mask><g stroke-linecap="round"><g transform="translate(761.5300007730118 405.52639913480107) rotate(0 15.65352415131133 10.234992705920263)"><path d="M0 0 C1.34 0.87, 4.35 3.78, 8.03 5.22 C11.71 6.66, 18.2 6.09, 22.08 8.63 C25.96 11.17, 29.77 18.5, 31.31 20.47 M0 0 C1.34 0.87, 4.35 3.78, 8.03 5.22 C11.71 6.66, 18.2 6.09, 22.08 8.63 C25.96 11.17, 29.77 18.5, 31.31 20.47" stroke="#2b2015" stroke-width="4" fill="none"></path></g></g><mask></mask><g stroke-linecap="round"><g transform="translate(677.4487738533462 320.6361566723126) rotate(0 65.4857908760739 23.341992329504478)"><path d="M0 0 C0.57 -2.64, 0.23 -11.77, 3.41 -15.85 C6.59 -19.93, 13.41 -21.71, 19.07 -24.48 C24.72 -27.26, 31.07 -31.04, 37.33 -32.51 C43.58 -33.98, 49.24 -34.55, 56.59 -33.31 C63.95 -32.08, 74.05 -29.43, 81.48 -25.09 C88.9 -20.74, 97.7 -12.74, 101.15 -7.22 C104.59 -1.71, 101.58 3.51, 102.15 8.03 C102.72 12.54, 101.48 17.49, 104.56 19.87 C107.63 22.24, 116.23 19, 120.61 22.28 C124.99 25.55, 129.98 33.58, 130.85 39.54 C131.72 45.49, 127.8 53.01, 125.83 58 C123.86 62.98, 123.36 65.96, 119.01 69.44 C114.66 72.92, 105.59 77, 99.74 78.87 C93.89 80.74, 86.53 80.37, 83.89 80.68 M0 0 C0.57 -2.64, 0.23 -11.77, 3.41 -15.85 C6.59 -19.93, 13.41 -21.71, 19.07 -24.48 C24.72 -27.26, 31.07 -31.04, 37.33 -32.51 C43.58 -33.98, 49.24 -34.55, 56.59 -33.31 C63.95 -32.08, 74.05 -29.43, 81.48 -25.09 C88.9 -20.74, 97.7 -12.74, 101.15 -7.22 C104.59 -1.71, 101.58 3.51, 102.15 8.03 C102.72 12.54, 101.48 17.49, 104.56 19.87 C107.63 22.24, 116.23 19, 120.61 22.28 C124.99 25.55, 129.98 33.58, 130.85 39.54 C131.72 45.49, 127.8 53.01, 125.83 58 C123.86 62.98, 123.36 65.96, 119.01 69.44 C114.66 72.92, 105.59 77, 99.74 78.87 C93.89 80.74, 86.53 80.37, 83.89 80.68" stroke="#2b2015" stroke-width="4" fill="none"></path></g></g><mask></mask><g stroke-linecap="round"><g transform="translate(815.2109011144471 557.1760345734842) rotate(0 -23.824763346091572 47.649510954653124)"><path d="M0 0 C-0.8 4.08, -2.52 17.02, -4.79 24.46 C-7.06 31.89, -12.23 38.36, -13.61 44.62 C-15 50.88, -12.65 57.61, -13.11 62.02 C-13.57 66.43, -10.63 65.55, -16.39 71.1 C-22.14 76.64, -42.44 91.27, -47.65 95.3 M0 0 C-0.8 4.08, -2.52 17.02, -4.79 24.46 C-7.06 31.89, -12.23 38.36, -13.61 44.62 C-15 50.88, -12.65 57.61, -13.11 62.02 C-13.57 66.43, -10.63 65.55, -16.39 71.1 C-22.14 76.64, -42.44 91.27, -47.65 95.3" stroke="#2b2015" stroke-width="4" fill="none"></path></g></g><mask></mask><g stroke-linecap="round"><g transform="translate(606.4367624469728 620.0679656730504) rotate(0 64.2105846181862 50.818178147295384)" fill-rule="evenodd"><path d="M0 0 C-0.83 7.35, -4.97 30.42, -4.97 44.07 C-4.97 57.73, -4.55 73.35, 0 81.94 C4.55 90.52, 7.55 92.39, 22.35 95.59 C37.14 98.8, 71.49 103.04, 88.77 101.18 C106.04 99.32, 118.77 94.56, 126.01 84.42 C133.25 74.28, 134.81 51.28, 132.22 40.35 C129.63 29.41, 120.21 22.65, 110.49 18.82 C100.76 14.99, 92.28 20.52, 73.87 17.38 C55.45 14.24, 12.31 2.9, 0 0" stroke="none" stroke-width="0" fill="#8d6a44" fill-rule="evenodd"></path><path d="M0 0 C-0.83 7.35, -4.97 30.42, -4.97 44.07 C-4.97 57.73, -4.55 73.35, 0 81.94 C4.55 90.52, 7.55 92.39, 22.35 95.59 C37.14 98.8, 71.49 103.04, 88.77 101.18 C106.04 99.32, 118.77 94.56, 126.01 84.42 C133.25 74.28, 134.81 51.28, 132.22 40.35 C129.63 29.41, 120.21 22.65, 110.49 18.82 C100.76 14.99, 92.28 20.52, 73.87 17.38 C55.45 14.24, 12.31 2.9, 0 0 M0 0 C-0.83 7.35, -4.97 30.42, -4.97 44.07 C-4.97 57.73, -4.55 73.35, 0 81.94 C4.55 90.52, 7.55 92.39, 22.35 95.59 C37.14 98.8, 71.49 103.04, 88.77 101.18 C106.04 99.32, 118.77 94.56, 126.01 84.42 C133.25 74.28, 134.81 51.28, 132.22 40.35 C129.63 29.41, 120.21 22.65, 110.49 18.82 C100.76 14.99, 92.28 20.52, 73.87 17.38 C55.45 14.24, 12.31 2.9, 0 0" stroke="#473d22" stroke-width="4" fill="none"></path></g></g><mask></mask><g stroke-linecap="round"><g transform="translate(638.3515189879281 436.55037785269406) rotate(0 62.12215659798011 50.98728777347378)"><path d="M0 0 C-1.01 5.42, -3.51 20.87, -6.05 32.5 C-8.6 44.13, -19.81 63.04, -15.3 69.79 C-10.78 76.53, 3.56 74.09, 21.03 72.97 C38.5 71.86, 74.83 66.07, 89.54 63.09 C104.25 60.12, 101.65 54.54, 109.3 55.13 C116.95 55.71, 131.55 61.82, 135.43 66.6 C139.31 71.38, 131.71 80.41, 132.56 83.81 C133.41 87.21, 139.97 85.17, 140.53 86.99 C141.09 88.81, 138.28 93.29, 135.93 94.73 C133.59 96.16, 128.93 95.59, 126.46 95.59 C123.98 95.58, 123.41 93.73, 121.08 94.69 C118.75 95.65, 116.11 100.15, 112.49 101.33 C108.86 102.51, 101.52 101.69, 99.33 101.76 M0 0 C-1.01 5.42, -3.51 20.87, -6.05 32.5 C-8.6 44.13, -19.81 63.04, -15.3 69.79 C-10.78 76.53, 3.56 74.09, 21.03 72.97 C38.5 71.86, 74.83 66.07, 89.54 63.09 C104.25 60.12, 101.65 54.54, 109.3 55.13 C116.95 55.71, 131.55 61.82, 135.43 66.6 C139.31 71.38, 131.71 80.41, 132.56 83.81 C133.41 87.21, 139.97 85.17, 140.53 86.99 C141.09 88.81, 138.28 93.29, 135.93 94.73 C133.59 96.16, 128.93 95.59, 126.46 95.59 C123.98 95.58, 123.41 93.73, 121.08 94.69 C118.75 95.65, 116.11 100.15, 112.49 101.33 C108.86 102.51, 101.52 101.69, 99.33 101.76" stroke="#343a40" stroke-width="4" fill="none"></path></g></g><mask></mask></svg><style>@media (prefers-color-scheme: light) { :root { filter: none; } }
@media (prefers-color-scheme: dark) { :root { filter: none; } }
</style></svg>