<?xml version="1.0" standalone="no"?>
<!DOCTYPE svg PUBLIC "-//W3C//DTD SVG 1.1//EN" "http://www.w3.org/Graphics/SVG/1.1/DTD/svg11.dtd">
<svg version="1.1" xmlns="http://www.w3.org/2000/svg" viewBox="0 0 946.1306855178746 946.1306855178746" width="1892.261371035749" height="1892.261371035749"><!-- svg-source:excalidraw --><metadata></metadata><defs><style class="style-fonts">
      </style></defs><g stroke-linecap="round" transform="translate(10 10) rotate(0 463.0653427589373 463.0653427589373)"><path d="M0 0 L926.13 0 L926.13 926.13 L0 926.13" stroke="none" stroke-width="0" fill="#f5f2ef"></path><path d="M0 0 C196.34 0, 392.68 0, 926.13 0 M0 0 C261.49 0, 522.97 0, 926.13 0 M926.13 0 C926.13 192.53, 926.13 385.06, 926.13 926.13 M926.13 0 C926.13 195.22, 926.13 390.45, 926.13 926.13 M926.13 926.13 C684.1 926.13, 442.07 926.13, 0 926.13 M926.13 926.13 C722.65 926.13, 519.17 926.13, 0 926.13 M0 926.13 C0 666.06, 0 405.99, 0 0 M0 926.13 C0 563.33, 0 200.52, 0 0" stroke="transparent" stroke-width="4" fill="none"></path></g><g stroke-linecap="round"><g transform="translate(262.665974631709 596.571629838661) rotate(0 46.51753766206781 -34.49095546826425)" fill-rule="evenodd"><path d="M0 0 C6.04 1.92, 26.63 16.09, 36.24 11.53 C45.84 6.97, 51.17 -16.09, 57.65 -27.34 C64.13 -38.6, 69.29 -47.11, 75.11 -56 C80.93 -64.9, 95.86 -77.58, 92.57 -80.71 C89.27 -83.84, 64.02 -75.55, 55.34 -74.78 C46.67 -74.01, 43.37 -78.84, 40.52 -76.1 C37.66 -73.35, 38.87 -64.4, 38.21 -58.31 C37.55 -52.21, 42.93 -49.25, 36.57 -39.53 C30.2 -29.81, 6.09 -6.59, 0 0" stroke="none" stroke-width="0" fill="#bfc9cb" fill-rule="evenodd"></path><path d="M0 0 C6.04 1.92, 26.63 16.09, 36.24 11.53 C45.84 6.97, 51.17 -16.09, 57.65 -27.34 C64.13 -38.6, 69.29 -47.11, 75.11 -56 C80.93 -64.9, 95.86 -77.58, 92.57 -80.71 C89.27 -83.84, 64.02 -75.55, 55.34 -74.78 C46.67 -74.01, 43.37 -78.84, 40.52 -76.1 C37.66 -73.35, 38.87 -64.4, 38.21 -58.31 C37.55 -52.21, 42.93 -49.25, 36.57 -39.53 C30.2 -29.81, 6.09 -6.59, 0 0 M0 0 C6.04 1.92, 26.63 16.09, 36.24 11.53 C45.84 6.97, 51.17 -16.09, 57.65 -27.34 C64.13 -38.6, 69.29 -47.11, 75.11 -56 C80.93 -64.9, 95.86 -77.58, 92.57 -80.71 C89.27 -83.84, 64.02 -75.55, 55.34 -74.78 C46.67 -74.01, 43.37 -78.84, 40.52 -76.1 C37.66 -73.35, 38.87 -64.4, 38.21 -58.31 C37.55 -52.21, 42.93 -49.25, 36.57 -39.53 C30.2 -29.81, 6.09 -6.59, 0 0" stroke="transparent" stroke-width="4" fill="none"></path></g></g><mask></mask><g stroke-linecap="round"><g transform="translate(481.32710899895164 96.59538652021729) rotate(0 -17.733413338555124 66.01218716231801)" fill-rule="evenodd"><path d="M0 0 C2.06 0.82, 9.11 3.08, 12.35 4.91 C15.58 6.73, 14.61 7.98, 19.43 10.95 C24.24 13.91, 34.56 16.55, 41.24 22.68 C47.92 28.81, 54.34 38.91, 59.51 47.72 C64.68 56.53, 70.58 66.83, 72.25 75.55 C73.92 84.26, 75.35 98.56, 69.54 100.01 C63.73 101.46, 45.62 88.01, 37.41 84.25 C29.21 80.5, 24.35 79.96, 20.33 77.48 C16.3 75, 16.84 70.76, 13.26 69.39 C9.67 68.01, 4.31 71.99, -1.18 69.23 C-6.67 66.47, -12.79 51.77, -19.69 52.81 C-26.59 53.85, -34.31 64.18, -42.57 75.46 C-50.83 86.74, -63.81 111.09, -69.23 120.49 C-74.65 129.89, -72.67 138.54, -75.07 131.86 C-77.48 125.18, -80.52 90.68, -83.66 80.42 C-86.81 70.16, -90.78 70.78, -93.96 70.3 C-97.14 69.81, -100.47 74.52, -102.74 77.5 C-105.01 80.48, -106.56 89.32, -107.57 88.16 C-108.58 87.01, -109.82 76.29, -108.81 70.6 C-107.81 64.9, -104.79 61.64, -101.54 54 C-98.28 46.36, -94.5 32.12, -89.26 24.75 C-84.02 17.37, -78.02 13.11, -70.11 9.72 C-62.21 6.33, -50.87 6.38, -41.83 4.42 C-32.8 2.45, -22.88 -1.33, -15.91 -2.06 C-8.94 -2.8, -2.65 -0.34, 0 0" stroke="none" stroke-width="0" fill="#332219" fill-rule="evenodd"></path><path d="M0 0 C2.06 0.82, 9.11 3.08, 12.35 4.91 C15.58 6.73, 14.61 7.98, 19.43 10.95 C24.24 13.91, 34.56 16.55, 41.24 22.68 C47.92 28.81, 54.34 38.91, 59.51 47.72 C64.68 56.53, 70.58 66.83, 72.25 75.55 C73.92 84.26, 75.35 98.56, 69.54 100.01 C63.73 101.46, 45.62 88.01, 37.41 84.25 C29.21 80.5, 24.35 79.96, 20.33 77.48 C16.3 75, 16.84 70.76, 13.26 69.39 C9.67 68.01, 4.31 71.99, -1.18 69.23 C-6.67 66.47, -12.79 51.77, -19.69 52.81 C-26.59 53.85, -34.31 64.18, -42.57 75.46 C-50.83 86.74, -63.81 111.09, -69.23 120.49 C-74.65 129.89, -72.67 138.54, -75.07 131.86 C-77.48 125.18, -80.52 90.68, -83.66 80.42 C-86.81 70.16, -90.78 70.78, -93.96 70.3 C-97.14 69.81, -100.47 74.52, -102.74 77.5 C-105.01 80.48, -106.56 89.32, -107.57 88.16 C-108.58 87.01, -109.82 76.29, -108.81 70.6 C-107.81 64.9, -104.79 61.64, -101.54 54 C-98.28 46.36, -94.5 32.12, -89.26 24.75 C-84.02 17.37, -78.02 13.11, -70.11 9.72 C-62.21 6.33, -50.87 6.38, -41.83 4.42 C-32.8 2.45, -22.88 -1.33, -15.91 -2.06 C-8.94 -2.8, -2.65 -0.34, 0 0 M0 0 C2.06 0.82, 9.11 3.08, 12.35 4.91 C15.58 6.73, 14.61 7.98, 19.43 10.95 C24.24 13.91, 34.56 16.55, 41.24 22.68 C47.92 28.81, 54.34 38.91, 59.51 47.72 C64.68 56.53, 70.58 66.83, 72.25 75.55 C73.92 84.26, 75.35 98.56, 69.54 100.01 C63.73 101.46, 45.62 88.01, 37.41 84.25 C29.21 80.5, 24.35 79.96, 20.33 77.48 C16.3 75, 16.84 70.76, 13.26 69.39 C9.67 68.01, 4.31 71.99, -1.18 69.23 C-6.67 66.47, -12.79 51.77, -19.69 52.81 C-26.59 53.85, -34.31 64.18, -42.57 75.46 C-50.83 86.74, -63.81 111.09, -69.23 120.49 C-74.65 129.89, -72.67 138.54, -75.07 131.86 C-77.48 125.18, -80.52 90.68, -83.66 80.42 C-86.81 70.16, -90.78 70.78, -93.96 70.3 C-97.14 69.81, -100.47 74.52, -102.74 77.5 C-105.01 80.48, -106.56 89.32, -107.57 88.16 C-108.58 87.01, -109.82 76.29, -108.81 70.6 C-107.81 64.9, -104.79 61.64, -101.54 54 C-98.28 46.36, -94.5 32.12, -89.26 24.75 C-84.02 17.37, -78.02 13.11, -70.11 9.72 C-62.21 6.33, -50.87 6.38, -41.83 4.42 C-32.8 2.45, -22.88 -1.33, -15.91 -2.06 C-8.94 -2.8, -2.65 -0.34, 0 0" stroke="transparent" stroke-width="4" fill="none"></path></g></g><mask></mask><g stroke-linecap="round"><g transform="translate(231.73870856153098 322.6161934945467) rotate(0 65.7785732014313 22.671082129463684)"><path d="M0 0 C1.88 -1.34, 6.84 -7.14, 11.31 -8.03 C15.77 -8.93, 21.47 -6.3, 26.78 -5.36 C32.08 -4.41, 28.91 -1.29, 43.14 -2.38 C57.38 -3.47, 97.69 -9.67, 112.17 -11.9 C126.65 -14.13, 135.23 -18.05, 130.02 -15.77 C124.82 -13.49, 93.87 -3.32, 80.93 1.79 C67.99 6.89, 59.01 6.84, 52.37 14.88 C45.72 22.91, 44.63 42.2, 41.06 49.99 C37.49 57.77, 34.42 62.93, 30.94 61.59 C27.47 60.25, 24.15 49.94, 20.23 41.95 C16.32 33.97, 10.81 20.68, 7.44 13.69 C4.07 6.69, 1.24 2.28, 0 0 M0 0 C1.88 -1.34, 6.84 -7.14, 11.31 -8.03 C15.77 -8.93, 21.47 -6.3, 26.78 -5.36 C32.08 -4.41, 28.91 -1.29, 43.14 -2.38 C57.38 -3.47, 97.69 -9.67, 112.17 -11.9 C126.65 -14.13, 135.23 -18.05, 130.02 -15.77 C124.82 -13.49, 93.87 -3.32, 80.93 1.79 C67.99 6.89, 59.01 6.84, 52.37 14.88 C45.72 22.91, 44.63 42.2, 41.06 49.99 C37.49 57.77, 34.42 62.93, 30.94 61.59 C27.47 60.25, 24.15 49.94, 20.23 41.95 C16.32 33.97, 10.81 20.68, 7.44 13.69 C4.07 6.69, 1.24 2.28, 0 0" stroke="#1e1e1e" stroke-width="4" fill="none"></path></g></g><mask></mask><g stroke-linecap="round"><g transform="translate(374.53432110521885 205.5647016797643) rotate(0 77.50283948797306 43.236559114243846)"><path d="M0 0 C1.49 3.45, 6.84 15.38, 8.94 20.73 C11.04 26.08, 13.95 21.27, 12.6 32.11 C11.24 42.94, 4 72.61, 0.81 85.75 C-2.37 98.89, -3.25 103.84, -6.5 110.95 C-9.75 118.06, -18.76 123.28, -18.69 128.43 C-18.63 133.57, -13.28 140.75, -6.1 141.84 C1.08 142.92, 11.29 138.99, 24.38 134.93 C37.48 130.87, 62.14 120.65, 72.49 117.49 C82.84 114.32, 82.23 116.86, 86.49 115.96 C90.75 115.06, 92.35 114.63, 98.05 112.11 C103.76 109.58, 114.84 105.92, 120.7 100.79 C126.57 95.66, 129.5 86.44, 133.26 81.34 C137.02 76.24, 140.77 73.93, 143.26 70.19 C145.75 66.46, 146.54 64.41, 148.2 58.93 C149.86 53.46, 149.6 44.72, 153.21 37.34 C156.83 29.96, 166.7 22.14, 169.89 14.64 C173.08 7.13, 175.21 -1.88, 172.38 -7.71 C169.54 -13.53, 160.15 -16.73, 152.9 -20.32 C145.64 -23.91, 134.34 -26.2, 128.83 -29.26 C123.32 -32.32, 123.83 -36.88, 119.82 -38.68 C115.82 -40.48, 111.16 -37.49, 104.8 -40.04 C98.45 -42.6, 92.06 -60.89, 81.7 -54.01 C71.35 -47.13, 51.01 -11.71, 42.67 1.22 C34.34 14.15, 34.14 24.25, 31.7 23.57 C29.26 22.89, 29.67 6.57, 28.04 -2.84 C26.42 -12.26, 25.06 -26.62, 21.95 -32.92 C18.83 -39.22, 13.07 -43.62, 9.35 -40.64 C5.62 -37.66, 1.15 -21.81, -0.41 -15.04 C-1.96 -8.26, -0.07 -2.51, 0 0 M0 0 C1.49 3.45, 6.84 15.38, 8.94 20.73 C11.04 26.08, 13.95 21.27, 12.6 32.11 C11.24 42.94, 4 72.61, 0.81 85.75 C-2.37 98.89, -3.25 103.84, -6.5 110.95 C-9.75 118.06, -18.76 123.28, -18.69 128.43 C-18.63 133.57, -13.28 140.75, -6.1 141.84 C1.08 142.92, 11.29 138.99, 24.38 134.93 C37.48 130.87, 62.14 120.65, 72.49 117.49 C82.84 114.32, 82.23 116.86, 86.49 115.96 C90.75 115.06, 92.35 114.63, 98.05 112.11 C103.76 109.58, 114.84 105.92, 120.7 100.79 C126.57 95.66, 129.5 86.44, 133.26 81.34 C137.02 76.24, 140.77 73.93, 143.26 70.19 C145.75 66.46, 146.54 64.41, 148.2 58.93 C149.86 53.46, 149.6 44.72, 153.21 37.34 C156.83 29.96, 166.7 22.14, 169.89 14.64 C173.08 7.13, 175.21 -1.88, 172.38 -7.71 C169.54 -13.53, 160.15 -16.73, 152.9 -20.32 C145.64 -23.91, 134.34 -26.2, 128.83 -29.26 C123.32 -32.32, 123.83 -36.88, 119.82 -38.68 C115.82 -40.48, 111.16 -37.49, 104.8 -40.04 C98.45 -42.6, 92.06 -60.89, 81.7 -54.01 C71.35 -47.13, 51.01 -11.71, 42.67 1.22 C34.34 14.15, 34.14 24.25, 31.7 23.57 C29.26 22.89, 29.67 6.57, 28.04 -2.84 C26.42 -12.26, 25.06 -26.62, 21.95 -32.92 C18.83 -39.22, 13.07 -43.62, 9.35 -40.64 C5.62 -37.66, 1.15 -21.81, -0.41 -15.04 C-1.96 -8.26, -0.07 -2.51, 0 0" stroke="#1e1e1e" stroke-width="4" fill="none"></path></g></g><mask></mask><g stroke-linecap="round"><g transform="translate(371.47347927822375 205.8794318554783) rotate(0 -68.36739988858511 57.229651918466516)" fill-rule="evenodd"><path d="M0 0 C-8.92 1.97, -37.09 6.95, -53.5 11.8 C-69.92 16.65, -84.37 21.13, -98.5 29.08 C-112.63 37.04, -131.02 51.03, -138.29 59.54 C-145.56 68.05, -141.49 74.59, -142.13 80.12 C-142.77 85.65, -140.3 89.81, -142.13 92.74 C-143.96 95.67, -153.33 94.43, -153.1 97.68 C-152.88 100.93, -145.1 110.85, -140.76 112.22 C-136.41 113.59, -131.84 106.51, -127.04 105.91 C-122.24 105.32, -117.25 107.24, -111.95 108.65 C-106.64 110.07, -110.9 114.97, -95.21 114.42 C-79.52 113.87, -33.98 108.38, -17.83 105.36 C-1.69 102.34, -3.57 106.14, 1.65 96.31 C6.86 86.48, 11.16 58.49, 13.44 46.37 C15.73 34.25, 17.61 31.33, 15.37 23.6 C13.12 15.87, 2.56 3.93, 0 0" stroke="none" stroke-width="0" fill="#969a99" fill-rule="evenodd"></path><path d="M0 0 C-8.92 1.97, -37.09 6.95, -53.5 11.8 C-69.92 16.65, -84.37 21.13, -98.5 29.08 C-112.63 37.04, -131.02 51.03, -138.29 59.54 C-145.56 68.05, -141.49 74.59, -142.13 80.12 C-142.77 85.65, -140.3 89.81, -142.13 92.74 C-143.96 95.67, -153.33 94.43, -153.1 97.68 C-152.88 100.93, -145.1 110.85, -140.76 112.22 C-136.41 113.59, -131.84 106.51, -127.04 105.91 C-122.24 105.32, -117.25 107.24, -111.95 108.65 C-106.64 110.07, -110.9 114.97, -95.21 114.42 C-79.52 113.87, -33.98 108.38, -17.83 105.36 C-1.69 102.34, -3.57 106.14, 1.65 96.31 C6.86 86.48, 11.16 58.49, 13.44 46.37 C15.73 34.25, 17.61 31.33, 15.37 23.6 C13.12 15.87, 2.56 3.93, 0 0 M0 0 C-8.92 1.97, -37.09 6.95, -53.5 11.8 C-69.92 16.65, -84.37 21.13, -98.5 29.08 C-112.63 37.04, -131.02 51.03, -138.29 59.54 C-145.56 68.05, -141.49 74.59, -142.13 80.12 C-142.77 85.65, -140.3 89.81, -142.13 92.74 C-143.96 95.67, -153.33 94.43, -153.1 97.68 C-152.88 100.93, -145.1 110.85, -140.76 112.22 C-136.41 113.59, -131.84 106.51, -127.04 105.91 C-122.24 105.32, -117.25 107.24, -111.95 108.65 C-106.64 110.07, -110.9 114.97, -95.21 114.42 C-79.52 113.87, -33.98 108.38, -17.83 105.36 C-1.69 102.34, -3.57 106.14, 1.65 96.31 C6.86 86.48, 11.16 58.49, 13.44 46.37 C15.73 34.25, 17.61 31.33, 15.37 23.6 C13.12 15.87, 2.56 3.93, 0 0" stroke="#1e1e1e" stroke-width="4" fill="none"></path></g></g><mask></mask><g stroke-linecap="round"><g transform="translate(271.0502968581934 237.1587810426122) rotate(0 41.34356387006778 19.70981112707136)"><path d="M0 0 C-4.48 3.89, -25.43 17.15, -26.89 23.32 C-28.35 29.5, -20.53 34.62, -8.78 37.04 C2.97 39.47, 23.87 40.52, 43.63 37.86 C63.38 35.21, 98.73 23.92, 109.75 21.13 M0 0 C-4.48 3.89, -25.43 17.15, -26.89 23.32 C-28.35 29.5, -20.53 34.62, -8.78 37.04 C2.97 39.47, 23.87 40.52, 43.63 37.86 C63.38 35.21, 98.73 23.92, 109.75 21.13" stroke="#343a40" stroke-width="4" fill="none"></path></g></g><mask></mask><g stroke-linecap="round"><g transform="translate(367.19126998278546 312.0206014186206) rotate(0 -38.51069743665198 49.181375958893796)" fill-rule="evenodd"><path d="M0 0 C-5.7 6.81, -23.54 25.14, -34.18 40.89 C-44.82 56.64, -57.66 84.72, -63.87 94.52 C-70.08 104.31, -69.33 99.94, -71.43 99.68 C-73.54 99.41, -78.66 99.92, -76.5 92.94 C-74.34 85.96, -68.45 72.17, -58.47 57.8 C-48.48 43.44, -24.81 16.63, -16.57 6.74 C-8.32 -3.15, -11.13 -0.08, -8.99 -1.56 C-6.84 -3.04, -5.21 -2.42, -3.72 -2.16 C-2.22 -1.9, -0.62 -0.36, 0 0" stroke="none" stroke-width="0" fill="#bfc9cb" fill-rule="evenodd"></path><path d="M0 0 C-5.7 6.81, -23.54 25.14, -34.18 40.89 C-44.82 56.64, -57.66 84.72, -63.87 94.52 C-70.08 104.31, -69.33 99.94, -71.43 99.68 C-73.54 99.41, -78.66 99.92, -76.5 92.94 C-74.34 85.96, -68.45 72.17, -58.47 57.8 C-48.48 43.44, -24.81 16.63, -16.57 6.74 C-8.32 -3.15, -11.13 -0.08, -8.99 -1.56 C-6.84 -3.04, -5.21 -2.42, -3.72 -2.16 C-2.22 -1.9, -0.62 -0.36, 0 0 M0 0 C-5.7 6.81, -23.54 25.14, -34.18 40.89 C-44.82 56.64, -57.66 84.72, -63.87 94.52 C-70.08 104.31, -69.33 99.94, -71.43 99.68 C-73.54 99.41, -78.66 99.92, -76.5 92.94 C-74.34 85.96, -68.45 72.17, -58.47 57.8 C-48.48 43.44, -24.81 16.63, -16.57 6.74 C-8.32 -3.15, -11.13 -0.08, -8.99 -1.56 C-6.84 -3.04, -5.21 -2.42, -3.72 -2.16 C-2.22 -1.9, -0.62 -0.36, 0 0" stroke="#394866" stroke-width="4" fill="none"></path></g></g><mask></mask><g stroke-linecap="round"><g transform="translate(422.0311915250411 333.8120804390687) rotate(0 -4.619077134226188 20.969875172850152)" fill-rule="evenodd"><path d="M0 0 C1.9 -0.64, 11.08 -5.55, 11.38 -3.83 C11.68 -2.12, 4.65 5.27, 1.8 10.3 C-1.06 15.33, -3.99 21.34, -5.75 26.34 C-7.5 31.35, -6.43 37.16, -8.74 40.35 C-11.06 43.55, -17.92 47.74, -19.64 45.5 C-21.35 43.27, -20.62 32.43, -19.04 26.94 C-17.46 21.45, -13.35 17.06, -10.18 12.57 C-7.01 8.08, -1.7 2.1, 0 0" stroke="none" stroke-width="0" fill="#bfc9cb" fill-rule="evenodd"></path><path d="M0 0 C1.9 -0.64, 11.08 -5.55, 11.38 -3.83 C11.68 -2.12, 4.65 5.27, 1.8 10.3 C-1.06 15.33, -3.99 21.34, -5.75 26.34 C-7.5 31.35, -6.43 37.16, -8.74 40.35 C-11.06 43.55, -17.92 47.74, -19.64 45.5 C-21.35 43.27, -20.62 32.43, -19.04 26.94 C-17.46 21.45, -13.35 17.06, -10.18 12.57 C-7.01 8.08, -1.7 2.1, 0 0 M0 0 C1.9 -0.64, 11.08 -5.55, 11.38 -3.83 C11.68 -2.12, 4.65 5.27, 1.8 10.3 C-1.06 15.33, -3.99 21.34, -5.75 26.34 C-7.5 31.35, -6.43 37.16, -8.74 40.35 C-11.06 43.55, -17.92 47.74, -19.64 45.5 C-21.35 43.27, -20.62 32.43, -19.04 26.94 C-17.46 21.45, -13.35 17.06, -10.18 12.57 C-7.01 8.08, -1.7 2.1, 0 0" stroke="#394866" stroke-width="4" fill="none"></path></g></g><mask></mask><g stroke-linecap="round"><g transform="translate(421.1210302618556 375.6366890335221) rotate(0 -110.49822327626458 70.79091251028194)"><path d="M0 0 C-13.41 5.9, -60.47 28.96, -80.44 35.4 C-100.42 41.83, -106.19 43.44, -119.86 38.61 C-133.54 33.79, -152.31 12.47, -162.5 6.44 C-172.69 0.4, -174.83 2.28, -181 2.41 C-187.17 2.55, -194.41 4.02, -199.5 7.24 C-204.6 10.46, -208.08 14.88, -211.57 21.72 C-215.05 28.56, -223.23 36.2, -220.42 48.27 C-217.6 60.33, -206.34 79.64, -194.67 94.12 C-183.01 108.6, -161.29 127.24, -150.43 135.15 C-139.57 143.06, -133 140.51, -129.52 141.58 M0 0 C-13.41 5.9, -60.47 28.96, -80.44 35.4 C-100.42 41.83, -106.19 43.44, -119.86 38.61 C-133.54 33.79, -152.31 12.47, -162.5 6.44 C-172.69 0.4, -174.83 2.28, -181 2.41 C-187.17 2.55, -194.41 4.02, -199.5 7.24 C-204.6 10.46, -208.08 14.88, -211.57 21.72 C-215.05 28.56, -223.23 36.2, -220.42 48.27 C-217.6 60.33, -206.34 79.64, -194.67 94.12 C-183.01 108.6, -161.29 127.24, -150.43 135.15 C-139.57 143.06, -133 140.51, -129.52 141.58" stroke="#343a40" stroke-width="4" fill="none"></path></g></g><mask></mask><g stroke-linecap="round"><g transform="translate(299.2957990353483 529.7651401996268) rotate(0 -85.17132065339825 -23.88938505068768)"><path d="M0 0 C-0.19 4.74, 4.43 17.84, -1.14 28.47 C-6.71 39.09, -23.85 57, -33.4 63.76 C-42.95 70.53, -50.73 70.6, -58.45 69.08 C-66.17 67.56, -69.84 61.49, -79.71 54.66 C-89.57 47.82, -107.86 37.39, -117.66 28.09 C-127.47 18.79, -131.45 11.7, -138.54 -1.14 C-145.62 -13.98, -156.38 -36.75, -160.17 -48.96 C-163.97 -61.17, -159.95 -67.48, -161.31 -74.39 C-162.67 -81.3, -166.71 -86, -168.35 -90.42 C-169.99 -94.85, -173.55 -97.67, -171.16 -100.96 C-168.77 -104.24, -158.39 -110.69, -154.03 -110.12 C-149.66 -109.56, -151.05 -98.88, -144.99 -97.54 C-138.93 -96.21, -125.38 -98.75, -117.66 -102.1 C-109.94 -105.45, -101.85 -115.07, -98.68 -117.66 M0 0 C-0.19 4.74, 4.43 17.84, -1.14 28.47 C-6.71 39.09, -23.85 57, -33.4 63.76 C-42.95 70.53, -50.73 70.6, -58.45 69.08 C-66.17 67.56, -69.84 61.49, -79.71 54.66 C-89.57 47.82, -107.86 37.39, -117.66 28.09 C-127.47 18.79, -131.45 11.7, -138.54 -1.14 C-145.62 -13.98, -156.38 -36.75, -160.17 -48.96 C-163.97 -61.17, -159.95 -67.48, -161.31 -74.39 C-162.67 -81.3, -166.71 -86, -168.35 -90.42 C-169.99 -94.85, -173.55 -97.67, -171.16 -100.96 C-168.77 -104.24, -158.39 -110.69, -154.03 -110.12 C-149.66 -109.56, -151.05 -98.88, -144.99 -97.54 C-138.93 -96.21, -125.38 -98.75, -117.66 -102.1 C-109.94 -105.45, -101.85 -115.07, -98.68 -117.66" stroke="#343a40" stroke-width="4" fill="none"></path></g></g><mask></mask><g stroke-linecap="round"><g transform="translate(372.8703698329001 193.31879702657625) rotate(0 90.24533130775268 -46.38232055954609)"><path d="M0 0 C0.08 -4.72, -1.33 -20.1, 0.48 -28.34 C2.3 -36.57, 7.27 -41.13, 10.9 -49.41 C14.53 -57.68, 15.54 -71.08, 22.28 -77.98 C29.02 -84.89, 44.04 -88.28, 51.34 -90.82 C58.65 -93.36, 59.82 -91.83, 66.12 -93.24 C72.41 -94.65, 80.4 -99.13, 89.12 -99.3 C97.84 -99.46, 111.2 -97.24, 118.43 -94.21 C125.65 -91.18, 127.59 -84.08, 132.47 -81.13 C137.36 -78.18, 143.61 -79.44, 147.73 -76.53 C151.85 -73.62, 153.26 -69.02, 157.18 -63.69 C161.09 -58.37, 167.51 -50.82, 171.22 -44.56 C174.94 -38.31, 177.88 -32.53, 179.46 -26.16 C181.03 -19.78, 181.19 -11.75, 180.67 -6.3 C180.14 -0.85, 177.04 4.4, 176.31 6.54 M0 0 C0.08 -4.72, -1.33 -20.1, 0.48 -28.34 C2.3 -36.57, 7.27 -41.13, 10.9 -49.41 C14.53 -57.68, 15.54 -71.08, 22.28 -77.98 C29.02 -84.89, 44.04 -88.28, 51.34 -90.82 C58.65 -93.36, 59.82 -91.83, 66.12 -93.24 C72.41 -94.65, 80.4 -99.13, 89.12 -99.3 C97.84 -99.46, 111.2 -97.24, 118.43 -94.21 C125.65 -91.18, 127.59 -84.08, 132.47 -81.13 C137.36 -78.18, 143.61 -79.44, 147.73 -76.53 C151.85 -73.62, 153.26 -69.02, 157.18 -63.69 C161.09 -58.37, 167.51 -50.82, 171.22 -44.56 C174.94 -38.31, 177.88 -32.53, 179.46 -26.16 C181.03 -19.78, 181.19 -11.75, 180.67 -6.3 C180.14 -0.85, 177.04 4.4, 176.31 6.54" stroke="#343a40" stroke-width="4" fill="none"></path></g></g><mask></mask><g stroke-linecap="round"><g transform="translate(397.1154653385104 262.6612555982897) rotate(0 26.022101692484114 29.209996830493083)"><path d="M0 0 C0.77 2.89, 1.26 11.15, 4.6 17.35 C7.93 23.55, 12.11 30.37, 20.02 37.22 C27.92 44.06, 46.71 54.89, 52.04 58.42 M0 0 C0.77 2.89, 1.26 11.15, 4.6 17.35 C7.93 23.55, 12.11 30.37, 20.02 37.22 C27.92 44.06, 46.71 54.89, 52.04 58.42" stroke="#343a40" stroke-width="4" fill="none"></path></g></g><mask></mask><g stroke-linecap="round"><g transform="translate(219.79353695418968 299.9912461912036) rotate(0 -49.44953898613949 58.256616711864126)"><path d="M0 0 C-2.08 -0.59, -7.02 -2.47, -12.46 -3.56 C-17.9 -4.65, -26.31 -6.08, -32.64 -6.53 C-38.97 -6.97, -44.9 -7.22, -50.44 -6.23 C-55.98 -5.24, -62.51 -4.35, -65.87 -0.59 C-69.23 3.16, -69.92 10.19, -70.62 16.32 C-71.31 22.45, -68.59 31.35, -70.02 36.2 C-71.46 41.04, -74.92 41.39, -79.22 45.4 C-83.52 49.4, -92.92 54.79, -95.84 60.23 C-98.75 65.67, -100.53 69.58, -96.73 78.03 C-92.92 86.49, -77.05 103.4, -72.99 110.97 C-68.94 118.53, -72.5 121.35, -72.4 123.43 M0 0 C-2.08 -0.59, -7.02 -2.47, -12.46 -3.56 C-17.9 -4.65, -26.31 -6.08, -32.64 -6.53 C-38.97 -6.97, -44.9 -7.22, -50.44 -6.23 C-55.98 -5.24, -62.51 -4.35, -65.87 -0.59 C-69.23 3.16, -69.92 10.19, -70.62 16.32 C-71.31 22.45, -68.59 31.35, -70.02 36.2 C-71.46 41.04, -74.92 41.39, -79.22 45.4 C-83.52 49.4, -92.92 54.79, -95.84 60.23 C-98.75 65.67, -100.53 69.58, -96.73 78.03 C-92.92 86.49, -77.05 103.4, -72.99 110.97 C-68.94 118.53, -72.5 121.35, -72.4 123.43" stroke="#343a40" stroke-width="4" fill="none"></path></g></g><mask></mask><g stroke-linecap="round"><g transform="translate(135.6551813762178 374.5203736399876) rotate(0 -0.8498838596318592 10.543982512293496)" fill-rule="evenodd"><path d="M0 0 C-2.57 1.8, -14.84 7.27, -15.45 10.77 C-16.05 14.28, -8.5 20.44, -3.63 21.03 C1.23 21.61, 13.15 17.78, 13.76 14.28 C14.37 10.77, 2.29 2.38, 0 0" stroke="none" stroke-width="0" fill="#969a99" fill-rule="evenodd"></path><path d="M0 0 C-2.57 1.8, -14.84 7.27, -15.45 10.77 C-16.05 14.28, -8.5 20.44, -3.63 21.03 C1.23 21.61, 13.15 17.78, 13.76 14.28 C14.37 10.77, 2.29 2.38, 0 0 M0 0 C-2.57 1.8, -14.84 7.27, -15.45 10.77 C-16.05 14.28, -8.5 20.44, -3.63 21.03 C1.23 21.61, 13.15 17.78, 13.76 14.28 C14.37 10.77, 2.29 2.38, 0 0" stroke="#1e1e1e" stroke-width="4" fill="none"></path></g></g><mask></mask><g stroke-linecap="round"><g transform="translate(201.0986326725706 406.50930430942844) rotate(0 -20.452336663257995 -40.307307201102276)"><path d="M0 0 C-0.54 -2.03, -4.05 -8.21, -3.26 -12.17 C-2.47 -16.12, 4.95 -19.38, 4.75 -23.74 C4.55 -28.09, 0.1 -33.33, -4.45 -38.28 C-9 -43.22, -16.07 -46.39, -22.55 -53.41 C-29.03 -60.43, -39.51 -78.33, -43.32 -80.41 C-47.13 -82.48, -45.05 -68.29, -45.4 -65.87 M0 0 C-0.54 -2.03, -4.05 -8.21, -3.26 -12.17 C-2.47 -16.12, 4.95 -19.38, 4.75 -23.74 C4.55 -28.09, 0.1 -33.33, -4.45 -38.28 C-9 -43.22, -16.07 -46.39, -22.55 -53.41 C-29.03 -60.43, -39.51 -78.33, -43.32 -80.41 C-47.13 -82.48, -45.05 -68.29, -45.4 -65.87" stroke="#343a40" stroke-width="4" fill="none"></path></g></g><mask></mask><g stroke-linecap="round"><g transform="translate(505.82244797137866 275.9497696124308) rotate(0 105.49433365444301 75.76808671198091)" fill-rule="evenodd"><path d="M0 0 C-1.51 2.49, -7.53 9.45, -9.05 14.91 C-10.56 20.38, -10.71 30.34, -9.07 32.79 C-7.43 35.24, -3.5 30.89, 0.78 29.63 C5.06 28.36, 7.58 23.6, 16.62 25.18 C25.67 26.76, 47.2 34.03, 55.06 39.09 C62.93 44.14, 61.27 48.71, 63.81 55.5 C66.34 62.29, 65.78 71.95, 70.26 79.83 C74.75 87.7, 85.2 97.66, 90.74 102.75 C96.29 107.84, 98.83 108.99, 103.55 110.36 C108.27 111.73, 112.48 111.62, 119.06 110.99 C125.64 110.36, 137.82 105.29, 143.02 106.59 C148.21 107.89, 151.16 113.76, 150.21 118.77 C149.27 123.78, 139.83 129.67, 137.36 136.64 C134.88 143.61, 135.15 154, 135.36 160.6 C135.57 167.21, 132.54 174.41, 138.62 176.27 C144.69 178.12, 162.84 174.13, 171.8 171.75 C180.76 169.38, 186.84 166.22, 192.39 162 C197.94 157.78, 200.71 152.7, 205.11 146.41 C209.52 140.11, 216.33 131.28, 218.83 124.22 C221.33 117.17, 222.08 111.79, 220.09 104.08 C218.1 96.37, 211.94 83.59, 206.89 77.96 C201.84 72.34, 195.45 71.83, 189.78 70.36 C184.1 68.88, 176.11 75.44, 172.83 69.11 C169.56 62.77, 171.77 41.23, 170.14 32.36 C168.51 23.49, 168.97 22.97, 163.06 15.89 C157.16 8.81, 143.87 -4.13, 134.7 -10.13 C125.54 -16.13, 118.52 -17.6, 108.09 -20.11 C97.66 -22.61, 82.64 -25.52, 72.12 -25.18 C61.6 -24.84, 54.35 -21.27, 44.98 -18.09 C35.61 -14.91, 23.39 -9.13, 15.89 -6.11 C8.39 -3.1, 2.65 -1.02, 0 0" stroke="none" stroke-width="0" fill="#150e0c" fill-rule="evenodd"></path><path d="M0 0 C-1.51 2.49, -7.53 9.45, -9.05 14.91 C-10.56 20.38, -10.71 30.34, -9.07 32.79 C-7.43 35.24, -3.5 30.89, 0.78 29.63 C5.06 28.36, 7.58 23.6, 16.62 25.18 C25.67 26.76, 47.2 34.03, 55.06 39.09 C62.93 44.14, 61.27 48.71, 63.81 55.5 C66.34 62.29, 65.78 71.95, 70.26 79.83 C74.75 87.7, 85.2 97.66, 90.74 102.75 C96.29 107.84, 98.83 108.99, 103.55 110.36 C108.27 111.73, 112.48 111.62, 119.06 110.99 C125.64 110.36, 137.82 105.29, 143.02 106.59 C148.21 107.89, 151.16 113.76, 150.21 118.77 C149.27 123.78, 139.83 129.67, 137.36 136.64 C134.88 143.61, 135.15 154, 135.36 160.6 C135.57 167.21, 132.54 174.41, 138.62 176.27 C144.69 178.12, 162.84 174.13, 171.8 171.75 C180.76 169.38, 186.84 166.22, 192.39 162 C197.94 157.78, 200.71 152.7, 205.11 146.41 C209.52 140.11, 216.33 131.28, 218.83 124.22 C221.33 117.17, 222.08 111.79, 220.09 104.08 C218.1 96.37, 211.94 83.59, 206.89 77.96 C201.84 72.34, 195.45 71.83, 189.78 70.36 C184.1 68.88, 176.11 75.44, 172.83 69.11 C169.56 62.77, 171.77 41.23, 170.14 32.36 C168.51 23.49, 168.97 22.97, 163.06 15.89 C157.16 8.81, 143.87 -4.13, 134.7 -10.13 C125.54 -16.13, 118.52 -17.6, 108.09 -20.11 C97.66 -22.61, 82.64 -25.52, 72.12 -25.18 C61.6 -24.84, 54.35 -21.27, 44.98 -18.09 C35.61 -14.91, 23.39 -9.13, 15.89 -6.11 C8.39 -3.1, 2.65 -1.02, 0 0 M0 0 C-1.51 2.49, -7.53 9.45, -9.05 14.91 C-10.56 20.38, -10.71 30.34, -9.07 32.79 C-7.43 35.24, -3.5 30.89, 0.78 29.63 C5.06 28.36, 7.58 23.6, 16.62 25.18 C25.67 26.76, 47.2 34.03, 55.06 39.09 C62.93 44.14, 61.27 48.71, 63.81 55.5 C66.34 62.29, 65.78 71.95, 70.26 79.83 C74.75 87.7, 85.2 97.66, 90.74 102.75 C96.29 107.84, 98.83 108.99, 103.55 110.36 C108.27 111.73, 112.48 111.62, 119.06 110.99 C125.64 110.36, 137.82 105.29, 143.02 106.59 C148.21 107.89, 151.16 113.76, 150.21 118.77 C149.27 123.78, 139.83 129.67, 137.36 136.64 C134.88 143.61, 135.15 154, 135.36 160.6 C135.57 167.21, 132.54 174.41, 138.62 176.27 C144.69 178.12, 162.84 174.13, 171.8 171.75 C180.76 169.38, 186.84 166.22, 192.39 162 C197.94 157.78, 200.71 152.7, 205.11 146.41 C209.52 140.11, 216.33 131.28, 218.83 124.22 C221.33 117.17, 222.08 111.79, 220.09 104.08 C218.1 96.37, 211.94 83.59, 206.89 77.96 C201.84 72.34, 195.45 71.83, 189.78 70.36 C184.1 68.88, 176.11 75.44, 172.83 69.11 C169.56 62.77, 171.77 41.23, 170.14 32.36 C168.51 23.49, 168.97 22.97, 163.06 15.89 C157.16 8.81, 143.87 -4.13, 134.7 -10.13 C125.54 -16.13, 118.52 -17.6, 108.09 -20.11 C97.66 -22.61, 82.64 -25.52, 72.12 -25.18 C61.6 -24.84, 54.35 -21.27, 44.98 -18.09 C35.61 -14.91, 23.39 -9.13, 15.89 -6.11 C8.39 -3.1, 2.65 -1.02, 0 0" stroke="transparent" stroke-width="4" fill="none"></path></g></g><mask></mask><g stroke-linecap="round"><g transform="translate(579.1752925344249 745.1874831379555) rotate(0 35.45163654387443 -21.949462401630626)" fill-rule="evenodd"><path d="M0 0 C7.44 3.68, 33.83 24.57, 44.65 22.11 C55.46 19.65, 60.2 -0.33, 64.86 -14.77 C69.52 -29.21, 75.26 -57.95, 72.61 -64.54 C69.96 -71.12, 56.86 -56.27, 48.98 -54.3 C41.09 -52.33, 29.98 -51.41, 25.29 -52.73 C20.61 -54.04, 24.17 -60.87, 20.88 -62.19 C17.59 -63.51, 8.24 -63.62, 5.57 -60.66 C2.9 -57.71, 6.17 -51.16, 4.87 -44.45 C3.57 -37.74, -1.41 -27.83, -2.22 -20.43 C-3.03 -13.02, -0.37 -3.4, 0 0" stroke="none" stroke-width="0" fill="#c0a788" fill-rule="evenodd"></path><path d="M0 0 C7.44 3.68, 33.83 24.57, 44.65 22.11 C55.46 19.65, 60.2 -0.33, 64.86 -14.77 C69.52 -29.21, 75.26 -57.95, 72.61 -64.54 C69.96 -71.12, 56.86 -56.27, 48.98 -54.3 C41.09 -52.33, 29.98 -51.41, 25.29 -52.73 C20.61 -54.04, 24.17 -60.87, 20.88 -62.19 C17.59 -63.51, 8.24 -63.62, 5.57 -60.66 C2.9 -57.71, 6.17 -51.16, 4.87 -44.45 C3.57 -37.74, -1.41 -27.83, -2.22 -20.43 C-3.03 -13.02, -0.37 -3.4, 0 0 M0 0 C7.44 3.68, 33.83 24.57, 44.65 22.11 C55.46 19.65, 60.2 -0.33, 64.86 -14.77 C69.52 -29.21, 75.26 -57.95, 72.61 -64.54 C69.96 -71.12, 56.86 -56.27, 48.98 -54.3 C41.09 -52.33, 29.98 -51.41, 25.29 -52.73 C20.61 -54.04, 24.17 -60.87, 20.88 -62.19 C17.59 -63.51, 8.24 -63.62, 5.57 -60.66 C2.9 -57.71, 6.17 -51.16, 4.87 -44.45 C3.57 -37.74, -1.41 -27.83, -2.22 -20.43 C-3.03 -13.02, -0.37 -3.4, 0 0" stroke="transparent" stroke-width="4" fill="none"></path></g></g><mask></mask><g stroke-linecap="round"><g transform="translate(577.7811306761064 665.4681135149467) rotate(0 7.402450109108884 15.693096098214937)" fill-rule="evenodd"><path d="M0 0 L-10.64 3.94 L5.03 31.39 L25.45 27.41 L19.96 9.82 L0 0" stroke="none" stroke-width="0" fill="#868e96" fill-rule="evenodd"></path><path d="M0 0 C-3.97 1.47, -7.94 2.94, -10.64 3.94 M0 0 C-3.98 1.47, -7.95 2.95, -10.64 3.94 M-10.64 3.94 C-7.26 9.86, -3.88 15.78, 5.03 31.39 M-10.64 3.94 C-5.09 13.66, 0.46 23.38, 5.03 31.39 M5.03 31.39 C11.94 30.04, 18.84 28.7, 25.45 27.41 M5.03 31.39 C9.62 30.49, 14.2 29.6, 25.45 27.41 M25.45 27.41 C23.77 22.03, 22.09 16.65, 19.96 9.82 M25.45 27.41 C24.11 23.11, 22.77 18.81, 19.96 9.82 M19.96 9.82 C15.95 7.84, 11.94 5.87, 0 0 M19.96 9.82 C13.01 6.4, 6.06 2.98, 0 0 M0 0 C0 0, 0 0, 0 0 M0 0 C0 0, 0 0, 0 0" stroke="transparent" stroke-width="4" fill="none"></path></g></g><mask></mask><g stroke-linecap="round"><g transform="translate(448.3167002813549 565.4917617210317) rotate(0 62.42447343204435 37.1303925802647)" fill-rule="evenodd"><path d="M0 0 L-35.02 72.32 L-32.75 78.48 L74.91 67.78 L141.39 57.4 L159.87 45.08 L88.85 20.11 L34.37 2.92 L20.75 -4.22 L0 0" stroke="none" stroke-width="0" fill="#c0a788" fill-rule="evenodd"></path><path d="M0 0 C-9.55 19.73, -19.11 39.46, -35.02 72.32 M0 0 C-10.22 21.1, -20.44 42.2, -35.02 72.32 M-35.02 72.32 C-34.29 74.31, -33.55 76.31, -32.75 78.48 M-35.02 72.32 C-34.19 74.58, -33.35 76.85, -32.75 78.48 M-32.75 78.48 C4.03 74.82, 40.81 71.16, 74.91 67.78 M-32.75 78.48 C1.14 75.11, 35.03 71.74, 74.91 67.78 M74.91 67.78 C95.01 64.64, 115.1 61.5, 141.39 57.4 M74.91 67.78 C99.2 63.98, 123.5 60.19, 141.39 57.4 M141.39 57.4 C148.4 52.72, 155.41 48.05, 159.87 45.08 M141.39 57.4 C145.96 54.35, 150.53 51.31, 159.87 45.08 M159.87 45.08 C137.69 37.27, 115.5 29.47, 88.85 20.11 M159.87 45.08 C137.76 37.3, 115.64 29.52, 88.85 20.11 M88.85 20.11 C68.36 13.64, 47.86 7.17, 34.37 2.92 M88.85 20.11 C74.41 15.55, 59.97 10.99, 34.37 2.92 M34.37 2.92 C29.62 0.43, 24.86 -2.06, 20.75 -4.22 M34.37 2.92 C30.26 0.76, 26.14 -1.39, 20.75 -4.22 M20.75 -4.22 C14.9 -3.03, 9.04 -1.84, 0 0 M20.75 -4.22 C15.88 -3.22, 11 -2.23, 0 0 M0 0 C0 0, 0 0, 0 0 M0 0 C0 0, 0 0, 0 0" stroke="transparent" stroke-width="4" fill="none"></path></g></g><mask></mask><g stroke-linecap="round"><g transform="translate(650.5454322091543 685.4866601767449) rotate(0 -37.44770667331122 40.55171784372692)"><path d="M0 0 C-1.18 6.87, -4.73 29.83, -7.09 41.21 C-9.45 52.58, -10.63 61.59, -14.18 68.23 C-17.72 74.88, -21.71 80.64, -28.36 81.08 C-35 81.53, -46.86 74.46, -54.06 70.89 C-61.26 67.32, -68.16 65.14, -71.56 59.67 C-74.95 54.19, -75.45 44.14, -74.41 38.05 C-73.37 31.97, -66.82 25.64, -65.3 23.16 M0 0 C-1.18 6.87, -4.73 29.83, -7.09 41.21 C-9.45 52.58, -10.63 61.59, -14.18 68.23 C-17.72 74.88, -21.71 80.64, -28.36 81.08 C-35 81.53, -46.86 74.46, -54.06 70.89 C-61.26 67.32, -68.16 65.14, -71.56 59.67 C-74.95 54.19, -75.45 44.14, -74.41 38.05 C-73.37 31.97, -66.82 25.64, -65.3 23.16" stroke="#473d22" stroke-width="4" fill="none"></path></g></g><mask></mask><g stroke-linecap="round"><g transform="translate(448.1231699969695 561.4783817329467) rotate(0 30.702888241202345 -50.7483272736788)" fill-rule="evenodd"><path d="M0 0 C7.74 -14.6, 36.91 -70.69, 46.45 -87.6 C55.99 -104.5, 54.93 -100.69, 57.23 -101.43 C59.54 -102.18, 59.84 -96.38, 60.28 -92.07 C60.72 -87.77, 62.79 -83.23, 59.88 -75.6 C56.96 -67.97, 47.57 -55.56, 42.79 -46.31 C38.01 -37.05, 35.22 -27.19, 31.2 -20.07 C27.17 -12.95, 23.82 -6.93, 18.62 -3.58 C13.42 -0.24, 3.1 -0.6, 0 0" stroke="none" stroke-width="0" fill="#c0a788" fill-rule="evenodd"></path><path d="M0 0 C7.74 -14.6, 36.91 -70.69, 46.45 -87.6 C55.99 -104.5, 54.93 -100.69, 57.23 -101.43 C59.54 -102.18, 59.84 -96.38, 60.28 -92.07 C60.72 -87.77, 62.79 -83.23, 59.88 -75.6 C56.96 -67.97, 47.57 -55.56, 42.79 -46.31 C38.01 -37.05, 35.22 -27.19, 31.2 -20.07 C27.17 -12.95, 23.82 -6.93, 18.62 -3.58 C13.42 -0.24, 3.1 -0.6, 0 0 M0 0 C7.74 -14.6, 36.91 -70.69, 46.45 -87.6 C55.99 -104.5, 54.93 -100.69, 57.23 -101.43 C59.54 -102.18, 59.84 -96.38, 60.28 -92.07 C60.72 -87.77, 62.79 -83.23, 59.88 -75.6 C56.96 -67.97, 47.57 -55.56, 42.79 -46.31 C38.01 -37.05, 35.22 -27.19, 31.2 -20.07 C27.17 -12.95, 23.82 -6.93, 18.62 -3.58 C13.42 -0.24, 3.1 -0.6, 0 0" stroke="#473d22" stroke-width="4" fill="none"></path></g></g><mask></mask><g stroke-linecap="round"><g transform="translate(565.3507589459507 667.0845743464874) rotate(0 17.980511551255205 11.333612998324952)"><path d="M0 0 C2.4 -0.31, 9.76 -3, 14.4 -1.88 C19.03 -0.76, 24.48 3.79, 27.81 6.73 C31.14 9.66, 33.02 12.71, 34.38 15.73 C35.73 18.74, 35.7 23.3, 35.96 24.82 M0 0 C2.4 -0.31, 9.76 -3, 14.4 -1.88 C19.03 -0.76, 24.48 3.79, 27.81 6.73 C31.14 9.66, 33.02 12.71, 34.38 15.73 C35.73 18.74, 35.7 23.3, 35.96 24.82" stroke="#343a40" stroke-width="4" fill="none"></path></g></g><mask></mask><g stroke-linecap="round"><g transform="translate(496.21535582966214 710.1598666929463) rotate(0 44.315422902883256 3.009866019328456)"><path d="M0 0 C-1.29 -1.06, -6.72 -3.17, -7.71 -6.37 C-8.71 -9.57, -9.7 -15.66, -5.97 -19.19 C-2.24 -22.72, 4.87 -22.37, 14.69 -27.56 C24.51 -32.75, 40.31 -52.97, 52.97 -50.33 C65.62 -47.7, 86.13 -22.02, 90.61 -11.74 C95.1 -1.46, 81.49 3.87, 79.86 11.35 C78.22 18.84, 77.91 25.64, 80.81 33.18 C83.71 40.72, 94.52 52.69, 97.26 56.59 M0 0 C-1.29 -1.06, -6.72 -3.17, -7.71 -6.37 C-8.71 -9.57, -9.7 -15.66, -5.97 -19.19 C-2.24 -22.72, 4.87 -22.37, 14.69 -27.56 C24.51 -32.75, 40.31 -52.97, 52.97 -50.33 C65.62 -47.7, 86.13 -22.02, 90.61 -11.74 C95.1 -1.46, 81.49 3.87, 79.86 11.35 C78.22 18.84, 77.91 25.64, 80.81 33.18 C83.71 40.72, 94.52 52.69, 97.26 56.59" stroke="#343a40" stroke-width="4" fill="none"></path></g></g><mask></mask><g stroke-linecap="round"><g transform="translate(629.1965050530276 539.6721206336365) rotate(0 104.66380280464351 74.21595387483785)" fill-rule="evenodd"><path d="M0 0 C-0.64 5.02, -3.02 21.46, -3.82 30.13 C-4.63 38.81, -5.38 45.08, -4.83 52.06 C-4.27 59.05, -4.38 67.62, -0.48 72.04 C3.42 76.47, 12.53 74.91, 18.58 78.6 C24.62 82.28, 32.98 89.07, 35.8 94.15 C38.62 99.23, 35.99 104.09, 35.5 109.09 C35.01 114.08, 31.44 120.96, 32.87 124.11 C34.29 127.26, 42.2 124.65, 44.04 127.99 C45.87 131.33, 39.33 137.7, 43.88 144.15 C48.43 150.6, 54.27 159.03, 71.34 166.71 C88.41 174.39, 125.79 191.13, 146.3 190.22 C166.81 189.3, 183.06 176.99, 194.39 161.21 C205.71 145.44, 213.05 114.79, 214.23 95.57 C215.41 76.35, 207.42 59.37, 201.44 45.89 C195.46 32.4, 191.62 26.99, 178.36 14.66 C165.1 2.34, 142.99 -18.67, 121.88 -28.08 C100.76 -37.49, 68.56 -41.93, 51.65 -41.82 C34.75 -41.7, 29.07 -34.35, 20.46 -27.38 C11.85 -20.41, 3.41 -4.56, 0 0" stroke="none" stroke-width="0" fill="#968979" fill-rule="evenodd"></path><path d="M0 0 C-0.64 5.02, -3.02 21.46, -3.82 30.13 C-4.63 38.81, -5.38 45.08, -4.83 52.06 C-4.27 59.05, -4.38 67.62, -0.48 72.04 C3.42 76.47, 12.53 74.91, 18.58 78.6 C24.62 82.28, 32.98 89.07, 35.8 94.15 C38.62 99.23, 35.99 104.09, 35.5 109.09 C35.01 114.08, 31.44 120.96, 32.87 124.11 C34.29 127.26, 42.2 124.65, 44.04 127.99 C45.87 131.33, 39.33 137.7, 43.88 144.15 C48.43 150.6, 54.27 159.03, 71.34 166.71 C88.41 174.39, 125.79 191.13, 146.3 190.22 C166.81 189.3, 183.06 176.99, 194.39 161.21 C205.71 145.44, 213.05 114.79, 214.23 95.57 C215.41 76.35, 207.42 59.37, 201.44 45.89 C195.46 32.4, 191.62 26.99, 178.36 14.66 C165.1 2.34, 142.99 -18.67, 121.88 -28.08 C100.76 -37.49, 68.56 -41.93, 51.65 -41.82 C34.75 -41.7, 29.07 -34.35, 20.46 -27.38 C11.85 -20.41, 3.41 -4.56, 0 0 M0 0 C-0.64 5.02, -3.02 21.46, -3.82 30.13 C-4.63 38.81, -5.38 45.08, -4.83 52.06 C-4.27 59.05, -4.38 67.62, -0.48 72.04 C3.42 76.47, 12.53 74.91, 18.58 78.6 C24.62 82.28, 32.98 89.07, 35.8 94.15 C38.62 99.23, 35.99 104.09, 35.5 109.09 C35.01 114.08, 31.44 120.96, 32.87 124.11 C34.29 127.26, 42.2 124.65, 44.04 127.99 C45.87 131.33, 39.33 137.7, 43.88 144.15 C48.43 150.6, 54.27 159.03, 71.34 166.71 C88.41 174.39, 125.79 191.13, 146.3 190.22 C166.81 189.3, 183.06 176.99, 194.39 161.21 C205.71 145.44, 213.05 114.79, 214.23 95.57 C215.41 76.35, 207.42 59.37, 201.44 45.89 C195.46 32.4, 191.62 26.99, 178.36 14.66 C165.1 2.34, 142.99 -18.67, 121.88 -28.08 C100.76 -37.49, 68.56 -41.93, 51.65 -41.82 C34.75 -41.7, 29.07 -34.35, 20.46 -27.38 C11.85 -20.41, 3.41 -4.56, 0 0" stroke="#2b2015" stroke-width="4" fill="none"></path></g></g><mask></mask><g stroke-linecap="round"><g transform="translate(410.71988494132324 639.4969919613736) rotate(0 100.77538558446412 -40.588184131199114)"><path d="M0 0 C3.89 -7.13, 15.92 -29.3, 23.33 -42.79 C30.73 -56.29, 29.5 -78.66, 44.42 -80.98 C59.34 -83.29, 86.68 -64.9, 112.87 -56.67 C139.06 -48.43, 186.77 -35.74, 201.55 -31.56 M0 0 C3.89 -7.13, 15.92 -29.3, 23.33 -42.79 C30.73 -56.29, 29.5 -78.66, 44.42 -80.98 C59.34 -83.29, 86.68 -64.9, 112.87 -56.67 C139.06 -48.43, 186.77 -35.74, 201.55 -31.56" stroke="#473d22" stroke-width="4" fill="none"></path></g></g><mask></mask><g stroke-linecap="round"><g transform="translate(669.2901460608219 540.2919052915299) rotate(0 76.8042688228937 54.3706805458562)"><path d="M0 0 C-0.33 7.13, -8.45 26.12, -1.98 42.8 C4.5 59.49, 20.52 84.4, 38.85 100.1 C57.18 115.79, 88.9 134.89, 108 136.97 C127.1 139.06, 145.81 126, 153.44 112.61 C161.07 99.22, 157.91 72.63, 153.78 56.63 C149.65 40.63, 141.11 29.46, 128.65 16.62 C116.19 3.77, 96.51 -13.15, 79.02 -20.41 C61.53 -27.68, 36.88 -30.4, 23.71 -27 C10.54 -23.6, 3.95 -4.5, 0 0 M0 0 C-0.33 7.13, -8.45 26.12, -1.98 42.8 C4.5 59.49, 20.52 84.4, 38.85 100.1 C57.18 115.79, 88.9 134.89, 108 136.97 C127.1 139.06, 145.81 126, 153.44 112.61 C161.07 99.22, 157.91 72.63, 153.78 56.63 C149.65 40.63, 141.11 29.46, 128.65 16.62 C116.19 3.77, 96.51 -13.15, 79.02 -20.41 C61.53 -27.68, 36.88 -30.4, 23.71 -27 C10.54 -23.6, 3.95 -4.5, 0 0" stroke="#343a40" stroke-width="4" fill="none"></path></g></g><mask></mask><g stroke-linecap="round"><g transform="translate(501.7257588786945 450.38755767387784) rotate(0 69.7360903194812 -32.01646910173372)"><path d="M0 0 C-0.36 -2.83, 0.36 -12.53, -2.17 -16.99 C-4.7 -21.45, -13.55 -20.9, -15.18 -26.75 C-16.81 -32.59, -13.26 -46.58, -11.93 -52.05 C-10.6 -57.52, -7.28 -56.67, -7.19 -59.59 C-7.1 -62.51, -10.83 -65.77, -11.38 -69.56 C-11.92 -73.34, -9.75 -77.08, -10.44 -82.29 C-11.14 -87.51, -16.08 -92.09, -15.54 -100.85 C-15.01 -109.6, -13.13 -126.81, -7.23 -134.82 C-1.33 -142.83, 9.88 -148.07, 19.88 -148.92 C29.88 -149.76, 44.64 -145, 52.77 -139.88 C60.9 -134.76, 65.3 -125.66, 68.68 -118.19 C72.05 -110.72, 66.99 -103.98, 73.01 -95.06 C79.04 -86.15, 93.68 -69.16, 104.82 -64.7 C115.97 -60.24, 131.51 -69.46, 139.88 -68.31 C148.26 -67.17, 154.7 -62.89, 155.06 -57.83 C155.42 -52.77, 144.58 -44.64, 142.05 -37.95 C139.52 -31.27, 140.48 -25.96, 139.88 -17.71 C139.28 -9.46, 137.65 2.35, 138.44 11.57 C139.22 20.78, 143.74 30.3, 144.58 37.59 C145.42 44.88, 150.48 47.83, 143.5 55.3 C136.51 62.77, 116.39 78.07, 102.65 82.41 C88.92 86.75, 70.54 85.06, 61.09 81.33 C51.63 77.59, 50.42 66.33, 45.9 60 C41.39 53.68, 35.96 46.15, 33.98 43.37 M0 0 C-0.36 -2.83, 0.36 -12.53, -2.17 -16.99 C-4.7 -21.45, -13.55 -20.9, -15.18 -26.75 C-16.81 -32.59, -13.26 -46.58, -11.93 -52.05 C-10.6 -57.52, -7.28 -56.67, -7.19 -59.59 C-7.1 -62.51, -10.83 -65.77, -11.38 -69.56 C-11.92 -73.34, -9.75 -77.08, -10.44 -82.29 C-11.14 -87.51, -16.08 -92.09, -15.54 -100.85 C-15.01 -109.6, -13.13 -126.81, -7.23 -134.82 C-1.33 -142.83, 9.88 -148.07, 19.88 -148.92 C29.88 -149.76, 44.64 -145, 52.77 -139.88 C60.9 -134.76, 65.3 -125.66, 68.68 -118.19 C72.05 -110.72, 66.99 -103.98, 73.01 -95.06 C79.04 -86.15, 93.68 -69.16, 104.82 -64.7 C115.97 -60.24, 131.51 -69.46, 139.88 -68.31 C148.26 -67.17, 154.7 -62.89, 155.06 -57.83 C155.42 -52.77, 144.58 -44.64, 142.05 -37.95 C139.52 -31.27, 140.48 -25.96, 139.88 -17.71 C139.28 -9.46, 137.65 2.35, 138.44 11.57 C139.22 20.78, 143.74 30.3, 144.58 37.59 C145.42 44.88, 150.48 47.83, 143.5 55.3 C136.51 62.77, 116.39 78.07, 102.65 82.41 C88.92 86.75, 70.54 85.06, 61.09 81.33 C51.63 77.59, 50.42 66.33, 45.9 60 C41.39 53.68, 35.96 46.15, 33.98 43.37" stroke="#2b2015" stroke-width="4" fill="none"></path></g></g><mask></mask><g stroke-linecap="round"><g transform="translate(503.5330277139889 445.32723501859573) rotate(0 38.08319097933233 23.174384492275976)"><path d="M0 0 C1.27 2.77, 5.72 10.6, 7.59 16.63 C9.46 22.65, 8.25 31.45, 11.2 36.15 C14.16 40.84, 18.8 43.25, 25.3 44.82 C31.81 46.39, 41.76 46.95, 50.24 45.54 C58.72 44.13, 71.85 37.89, 76.17 36.36 M0 0 C1.27 2.77, 5.72 10.6, 7.59 16.63 C9.46 22.65, 8.25 31.45, 11.2 36.15 C14.16 40.84, 18.8 43.25, 25.3 44.82 C31.81 46.39, 41.76 46.95, 50.24 45.54 C58.72 44.13, 71.85 37.89, 76.17 36.36" stroke="#2b2015" stroke-width="4" fill="none"></path></g></g><mask></mask><g stroke-linecap="round"><g transform="translate(643.4901649509 459.28903146199036) rotate(0 27.510410993522527 17.987569644627456)"><path d="M0 0 C2.35 1.53, 7.64 6.64, 14.11 9.17 C20.57 11.7, 31.98 10.7, 38.8 15.17 C45.62 19.63, 52.32 32.51, 55.02 35.98 M0 0 C2.35 1.53, 7.64 6.64, 14.11 9.17 C20.57 11.7, 31.98 10.7, 38.8 15.17 C45.62 19.63, 52.32 32.51, 55.02 35.98" stroke="#2b2015" stroke-width="4" fill="none"></path></g></g><mask></mask><g stroke-linecap="round"><g transform="translate(495.72094141756156 310.09799710394145) rotate(0 115.08852599724273 41.02257077608465)"><path d="M0 0 C1 -4.64, 0.41 -20.69, 6 -27.86 C11.58 -35.03, 23.57 -38.15, 33.51 -43.03 C43.44 -47.91, 54.61 -54.55, 65.6 -57.14 C76.59 -59.72, 86.53 -60.72, 99.46 -58.55 C112.39 -56.37, 130.15 -51.73, 143.2 -44.09 C156.24 -36.45, 171.7 -22.4, 177.76 -12.7 C183.81 -3, 178.52 6.17, 179.52 14.11 C180.52 22.04, 178.35 30.74, 183.76 34.92 C189.16 39.09, 204.27 33.39, 211.97 39.15 C219.67 44.91, 228.43 59.02, 229.96 69.48 C231.49 79.94, 224.61 93.17, 221.14 101.93 C217.67 110.69, 216.79 115.92, 209.15 122.03 C201.51 128.15, 185.58 135.32, 175.29 138.61 C165 141.9, 152.07 141.26, 147.43 141.78 M0 0 C1 -4.64, 0.41 -20.69, 6 -27.86 C11.58 -35.03, 23.57 -38.15, 33.51 -43.03 C43.44 -47.91, 54.61 -54.55, 65.6 -57.14 C76.59 -59.72, 86.53 -60.72, 99.46 -58.55 C112.39 -56.37, 130.15 -51.73, 143.2 -44.09 C156.24 -36.45, 171.7 -22.4, 177.76 -12.7 C183.81 -3, 178.52 6.17, 179.52 14.11 C180.52 22.04, 178.35 30.74, 183.76 34.92 C189.16 39.09, 204.27 33.39, 211.97 39.15 C219.67 44.91, 228.43 59.02, 229.96 69.48 C231.49 79.94, 224.61 93.17, 221.14 101.93 C217.67 110.69, 216.79 115.92, 209.15 122.03 C201.51 128.15, 185.58 135.32, 175.29 138.61 C165 141.9, 152.07 141.26, 147.43 141.78" stroke="#2b2015" stroke-width="4" fill="none"></path></g></g><mask></mask><g stroke-linecap="round"><g transform="translate(427.00915871168127 513.8123705473945) rotate(0 109.17708008079643 89.6080159671751)"><path d="M0 0 C-1.77 9.52, -6.16 36.68, -10.64 57.12 C-15.12 77.56, -34.81 110.79, -26.88 122.65 C-18.95 134.5, 6.25 130.21, 36.96 128.25 C67.67 126.29, 131.51 116.11, 157.37 110.88 C183.22 105.66, 178.65 95.86, 192.09 96.88 C205.53 97.91, 231.2 108.64, 238.01 117.05 C244.82 125.45, 231.48 141.31, 232.97 147.29 C234.46 153.26, 245.98 149.69, 246.97 152.89 C247.96 156.09, 243.02 163.96, 238.9 166.48 C234.78 168.99, 226.6 168, 222.24 167.99 C217.89 167.98, 216.88 164.73, 212.79 166.42 C208.7 168.1, 204.06 176.02, 197.69 178.09 C191.32 180.16, 178.42 178.72, 174.56 178.85 M0 0 C-1.77 9.52, -6.16 36.68, -10.64 57.12 C-15.12 77.56, -34.81 110.79, -26.88 122.65 C-18.95 134.5, 6.25 130.21, 36.96 128.25 C67.67 126.29, 131.51 116.11, 157.37 110.88 C183.22 105.66, 178.65 95.86, 192.09 96.88 C205.53 97.91, 231.2 108.64, 238.01 117.05 C244.82 125.45, 231.48 141.31, 232.97 147.29 C234.46 153.26, 245.98 149.69, 246.97 152.89 C247.96 156.09, 243.02 163.96, 238.9 166.48 C234.78 168.99, 226.6 168, 222.24 167.99 C217.89 167.98, 216.88 164.73, 212.79 166.42 C208.7 168.1, 204.06 176.02, 197.69 178.09 C191.32 180.16, 178.42 178.72, 174.56 178.85" stroke="#343a40" stroke-width="4" fill="none"></path></g></g><mask></mask><g stroke-linecap="round"><g transform="translate(501.9628505725351 453.10755697350123) rotate(0 -118.1727428384952 146.89531089405295)"><path d="M0 0 C-9.04 -1.16, -39.4 -8.53, -54.26 -6.98 C-69.11 -5.43, -74.67 -1.29, -89.14 9.3 C-103.61 19.89, -122.34 32.43, -141.07 56.58 C-159.8 80.74, -185.77 122.47, -201.53 154.25 C-217.29 186.02, -232.66 225.94, -235.63 247.26 C-238.6 268.57, -232.14 273.48, -219.35 282.14 C-206.56 290.79, -174.27 296.35, -158.9 299.19 C-143.52 302.03, -140.87 301.08, -127.12 299.19 C-113.36 297.3, -90.99 292.56, -76.37 287.87 C-61.75 283.18, -50.44 275.34, -39.41 271.05 C-28.37 266.77, -15.02 263.64, -10.14 262.15 M0 0 C-9.04 -1.16, -39.4 -8.53, -54.26 -6.98 C-69.11 -5.43, -74.67 -1.29, -89.14 9.3 C-103.61 19.89, -122.34 32.43, -141.07 56.58 C-159.8 80.74, -185.77 122.47, -201.53 154.25 C-217.29 186.02, -232.66 225.94, -235.63 247.26 C-238.6 268.57, -232.14 273.48, -219.35 282.14 C-206.56 290.79, -174.27 296.35, -158.9 299.19 C-143.52 302.03, -140.87 301.08, -127.12 299.19 C-113.36 297.3, -90.99 292.56, -76.37 287.87 C-61.75 283.18, -50.44 275.34, -39.41 271.05 C-28.37 266.77, -15.02 263.64, -10.14 262.15" stroke="#343a40" stroke-width="4" fill="none"></path></g></g><mask></mask><g stroke-linecap="round"><g transform="translate(737.8320918307654 725.8068939962563) rotate(0 -72.14677139286826 69.72838909266056)"><path d="M0 0 C-1.4 7.16, -4.43 29.91, -8.42 42.98 C-12.41 56.05, -18.79 67.19, -23.93 78.43 C-29.06 89.66, -32.94 100.47, -39.22 110.38 C-45.5 120.3, -44.11 133.61, -61.62 137.89 C-79.13 142.17, -130.51 136.36, -144.29 136.05 M0 0 C-1.4 7.16, -4.43 29.91, -8.42 42.98 C-12.41 56.05, -18.79 67.19, -23.93 78.43 C-29.06 89.66, -32.94 100.47, -39.22 110.38 C-45.5 120.3, -44.11 133.61, -61.62 137.89 C-79.13 142.17, -130.51 136.36, -144.29 136.05" stroke="#2b2015" stroke-width="4" fill="none"></path></g></g><mask></mask><g stroke-linecap="round"><g transform="translate(598.2376151843052 843.155274092845) rotate(0 -31.04023539538551 -34.24279554242685)"><path d="M0 0 C-5.68 -5.22, -23.76 -19.88, -34.1 -31.3 C-44.45 -42.71, -57.42 -62.29, -62.08 -68.49 M0 0 C-5.68 -5.22, -23.76 -19.88, -34.1 -31.3 C-44.45 -42.71, -57.42 -62.29, -62.08 -68.49" stroke="#343a40" stroke-width="4" fill="none"></path></g></g><mask></mask><g stroke-linecap="round"><g transform="translate(291.9488131507219 517.0806740982239) rotate(0 31.882199040029832 1.401249358313862)"><path d="M0 0 C4.09 0.67, 13.9 4.25, 24.53 4.04 C35.16 3.83, 57.23 -0.37, 63.76 -1.25 M0 0 C4.09 0.67, 13.9 4.25, 24.53 4.04 C35.16 3.83, 57.23 -0.37, 63.76 -1.25" stroke="#1e1e1e" stroke-width="4" fill="none"></path></g></g><mask></mask></svg>